<?xml version="1.0" encoding="utf-8"?>
<!-- Generator: Adobe Illustrator 23.0.1, SVG Export Plug-In . SVG Version: 6.00 Build 0)  -->
<svg version="1.1" id="Layer_1" xmlns="http://www.w3.org/2000/svg" xmlns:xlink="http://www.w3.org/1999/xlink" x="0px" y="0px"
	 viewBox="0 0 234.8 198.4" style="enable-background:new 0 0 234.8 198.4;" xml:space="preserve">
<style type="text/css">
	.st0{fill:#2CAEA4;}
	.st1{fill:#24897F;}
	.st2{fill:#92D6B5;}
	.st3{fill:#FFAD8D;}
	.st4{opacity:0.25;enable-background:new    ;}
	.st5{fill:#8C5616;}
	.st6{clip-path:url(#SVGID_2_);}
	.st7{fill:#6B4112;}
	.st8{opacity:0.46;}
	.st9{fill:#FFFFFF;}
</style>
<title>1 - egészséges haj</title>
<g>
	<g>
		<circle class="st0" cx="135.4" cy="99.2" r="96.5"/>
		<path class="st1" d="M218.4,52.4c-3.1-2.9-7.3,1.5-4.6,4.7c5.4,6.3,6,16.1,6.6,24s0.1,16-1.4,23.8c-3.1,15.6-9.9,30.1-20,42.3
			c-20.1,24-53.4,35.6-84.1,29.5c-10.8-2.2-15.4,14.5-4.6,16.5c38.2,7.3,78.5-6.8,102.2-38.1c11.6-15.3,17.6-33.3,19.2-52.3
			C233,86.3,231.2,64.3,218.4,52.4z"/>
		<path class="st2" d="M135.4,4.5c52.3,0,94.7,42.4,94.7,94.7s-42.4,94.7-94.7,94.7s-94.7-42.4-94.7-94.7l0,0
			C40.7,46.9,83.1,4.5,135.4,4.5 M135.4,0.9c-54.3,0-98.3,44-98.3,98.3s44,98.3,98.3,98.3s98.3-44,98.3-98.3S189.7,0.9,135.4,0.9
			L135.4,0.9z"/>
		<path class="st3" d="M175,75.7c1.5,2.2,3.1,4.2,4.5,6.3c1.3,2.1,3,3.9,5,5.3c9.3,5.8,18.8-2.1,21.4-11c2.7-9.2,0.9-22.1-8-27.5
			c-8.9-5.5-20.4,2.4-24.4,10.6l-0.1,0.2l-0.1,0.2C171.2,65,171.8,71,175,75.7z"/>
		<path class="st4" d="M173.9,56.8c4.2-5.6,15.4-3.4,17.5-10.2c0.3-0.9,1.2-1.4,2.2-1.2c0.3,0.1,0.5,0.2,0.7,0.4
			c1.2,1.1,6.8,9.2,7.7,8.7c1.5-0.8,3.3,1.3,1.9,2.4c-4.6,3.7-7.5-2.8-10.2-6.7c-1.2,1.9-3,3.4-5.2,4.1c-2,0.8-4.2,0.9-6.1,1.6
			c-6.8,2.1-6.7,6.7-5.4,12.3c0.2,1-0.9,2.2-1.9,1.5C170.9,66.5,170.9,60.8,173.9,56.8z"/>
		<path class="st5" d="M200.6,55.1c10.3,0.1,22-10.9,24.5-20.9c0.9-3.8,0.8-7.8-1.5-11.1c-2.7-3.7-7.2-5.5-11.7-4.6
			c-5.4,1.2-8.3,6.2-13.4,8c-7.6,2.7-15.5-3-23.1-5.6c-13.8-4.9-31.7,1.2-37.4,12.7c-5.1,10.3-1.7,24.1-12.1,31.2
			c-4.9,3.3-11.5,4.1-17.7,4.6c-14.9,1.2-29.9,1.4-44.7,3.7s-29.3,6.6-40.4,14.9c-13.6,10.2-21.4,26.3-21,43.2
			c0.3,16.9,8.1,32.9,21.2,43.6c13.8,11.4,34.3,17.4,53.4,14.5c19.1-3,36.1-15.6,39.9-31.3c1.7-6.6,2.3-15.1,9.8-17.7
			c4.9-1.7,10.4-0.1,15.8,0.2c9.3,0.4,18.2-3.6,24.2-10.6c5.1-6.4,7-14.7,5.5-22.7c-1.2-6.8-4.3-14-1.2-20.4c1.9-4,5.7-6.9,8.8-10.3
			c3.1-3.4,5.3-7.9,3.2-11.8c-1.4-2.5-4.5-4.8-3.8-7.3c0.7-2.9,5.1-3.9,8.6-4.4c3.6-0.5,7.9-2.1,7.6-5.1"/>
		<g>
			<g>
				<g>
					<defs>
						<path id="SVGID_1_" d="M200.6,55.1c10.3,0.1,22-10.9,24.5-20.9c0.9-3.8,0.8-7.8-1.5-11.1c-2.7-3.7-7.2-5.5-11.7-4.6
							c-5.4,1.2-8.3,6.2-13.4,8c-7.6,2.7-15.5-3-23.1-5.6c-13.8-4.9-31.7,1.2-37.4,12.7c-5.1,10.3-1.7,24.1-12.1,31.2
							c-4.9,3.3-11.5,4.1-17.7,4.6c-14.9,1.2-29.9,1.4-44.7,3.7s-29.3,6.6-40.4,14.9c-13.6,10.2-21.4,26.3-21,43.2
							c0.3,16.9,8.1,32.9,21.2,43.6c13.8,11.4,34.3,17.4,53.4,14.5c19.1-3,36.1-15.6,39.9-31.3c1.7-6.6,2.3-15.1,9.8-17.7
							c4.9-1.7,10.4-0.1,15.8,0.2c9.3,0.4,18.2-3.6,24.2-10.6c5.1-6.4,7-14.7,5.5-22.7c-1.2-6.8-4.3-14-1.2-20.4
							c1.9-4,5.7-6.9,8.8-10.3c3.1-3.4,5.3-7.9,3.2-11.8c-1.4-2.5-4.5-4.8-3.8-7.3c0.7-2.9,5.1-3.9,8.6-4.4c3.6-0.5,7.9-2.1,7.6-5.1
							"/>
					</defs>
					<clipPath id="SVGID_2_">
						<use xlink:href="#SVGID_1_"  style="overflow:visible;"/>
					</clipPath>
					<g class="st6">
						<path class="st5" d="M133.9,5.5"/>
						<path class="st7" d="M109.2,95.8C119.8,78.1,143,70,160.3,57.6c9.7-7,17.3-17,31.3-18.3c13-1.2,24.5,6.9,23.7,17.9
							c-0.5,6-12.2,8.3-13.7,1.5c-1.5-6.8-8.5-6.8-14.2-3.3c-1.2,0.7-2.3,1.5-3.3,2.3c3.9,1,7.2,3.9,6.8,7.3
							c-0.6,5.1-3.1,9.8-6.7,13.3c-3.1,3.1-7.5,5.7-9.2,9.6c-3.6,7.8,1.6,17.6,1.9,25.7c0.4,9.8-4.2,18.9-14.5,24.3
							c-9.9,5.1-23.7,5.7-34.8,3.3C102.9,135.6,99.3,112.2,109.2,95.8z"/>
					</g>
				</g>
			</g>
		</g>
		<g class="st8">
			<path class="st9" d="M98.5,161.2c-2.6,12.7-19,22.7-34.2,16.6c-0.5-0.2-0.3-1,0.3-1c14.5,1.5,28.2-3.7,31.2-16.3
				C96.1,159.2,98.8,159.8,98.5,161.2L98.5,161.2z"/>
		</g>
		<g class="st8">
			<path class="st9" d="M157.6,32.2c-1.4,0-2.8,0.5-3.7,1.5c-1,0.9-1.3,2.1-2.4,3c-0.3,0.2-0.6,0.2-1,0.1c-2.1-1.2-1.1-3.8,0.2-5.3
				c1.8-1.9,4.3-2.9,6.8-2.9c1-0.1,1.9,0.6,2,1.6c0.1,1-0.6,1.9-1.6,2C157.9,32.3,157.8,32.3,157.6,32.2L157.6,32.2z"/>
		</g>
		<g class="st8">
			<path class="st9" d="M218.9,30.3c1.2,2.5,1.1,5.5-0.4,7.8c-1.3,2.2-3.7,4.3-6.8,3.8c-0.4,0-0.6-0.4-0.6-0.7c0-0.1,0-0.2,0.1-0.3
				c0.9-1.6,2.6-2.7,3.6-4.3c1.1-1.7,1.3-3.7,0.5-5.5C214.4,29.2,218,28.4,218.9,30.3L218.9,30.3z"/>
		</g>
		<g class="st8">
			<path class="st9" d="M35.7,102.5c-10.3,4.7-10.8,12.7-9.2,21.3c0,0.5-0.4,1-0.9,1c-0.2,0-0.5-0.1-0.7-0.2
				c-9.3-8-1.8-20.6,8.5-25.2C36,98.3,38.2,101.4,35.7,102.5L35.7,102.5z"/>
		</g>
	</g>
</g>
</svg>
