<?xml version="1.0" encoding="utf-8"?>
<!-- Generator: Adobe Illustrator 23.0.1, SVG Export Plug-In . SVG Version: 6.00 Build 0)  -->
<svg version="1.1" id="Layer_1" xmlns="http://www.w3.org/2000/svg" xmlns:xlink="http://www.w3.org/1999/xlink" x="0px" y="0px"
	 viewBox="0 0 198.4 198.4" style="enable-background:new 0 0 198.4 198.4;" xml:space="preserve">
<style type="text/css">
	.st0{fill:#2CAEA4;}
	.st1{fill:#24897F;}
	.st2{fill:#56453F;}
	.st3{fill:#92D6B5;}
	.st4{clip-path:url(#SVGID_2_);}
	.st5{opacity:0.5;fill:#723B05;enable-background:new    ;}
	.st6{fill:#FFE8D7;}
	.st7{fill:none;stroke:#723B05;stroke-width:0.2325;stroke-miterlimit:10;}
	.st8{fill:#723B05;}
	.st9{font-family:'ArialMT';}
	.st10{font-size:12.5682px;}
	.st11{fill:#141518;}
	.st12{fill:#FFB67C;}
	.st13{fill:#A82F2F;}
	.st14{fill:#C69262;}
	.st15{fill:#F4CE8E;}
	.st16{fill:#DC5B3E;}
	.st17{fill:#951A45;}
	.st18{fill:#F89830;}
	.st19{fill:#F6DEBC;}
	.st20{fill:#471540;}
	.st21{fill:#B3B3B3;}
	.st22{fill:#421E0A;}
	.st23{fill:#FEF2DB;}
	.st24{fill:#050105;}
</style>
<g>
	<circle class="st0" cx="99.2" cy="99.2" r="97.4"/>
	<path class="st1" d="M183,52.1c-3.1-2.9-7.4,1.4-4.7,4.7c5.5,6.3,6.1,16.2,6.7,24.2c0.6,8,0.1,16.1-1.4,24
		c-3.1,15.6-10,30.3-20.2,42.7c-20.3,24.2-54,35.9-85,29.7c-10.9-2.1-15.5,14.7-4.7,16.7c38.6,7.4,79.2-6.9,103-38.4
		c11.7-15.4,17.8-33.5,19.5-52.8C197.8,86.3,195.9,64.1,183,52.1z"/>
	<path class="st2" d="M99.2,3.6c52.9,0,95.6,42.9,95.6,95.6S152.1,195,99.3,195c-52.9,0-95.6-42.9-95.6-95.6l0,0
		C3.7,46.4,46.4,3.7,99.2,3.6 M99.2,0C44.4,0,0,44.4,0,99.2s44.4,99.2,99.2,99.2s99.2-44.4,99.2-99.2C198.5,44.4,154.1,0,99.2,0
		L99.2,0z"/>
	<path class="st3" d="M99.2,3.6c52.9,0,95.6,42.9,95.6,95.6S152.1,195,99.3,195c-52.9,0-95.6-42.9-95.6-95.6l0,0
		C3.7,46.4,46.4,3.7,99.2,3.6 M99.2,0C44.4,0,0,44.4,0,99.2s44.4,99.2,99.2,99.2s99.2-44.4,99.2-99.2C198.5,44.4,154.1,0,99.2,0
		L99.2,0z"/>
	<g>
		<g>
			<defs>
				<path id="SVGID_1_" d="M99.1,1.1c0,0-10.7,0.6-23,0.7c-12.2,0.1-29.2,5-42.6,3.9c-10.6-0.8-14.8-1.2-18,1.6
					c-1.8,1.5-4.1,2.5-5.9,5.8c-7.6,13.7-6,69.5-6,86.2c0,52.9,42.9,95.6,95.6,95.6s95.6-42.9,95.6-95.6c0-38.2-27.4-77.4-59.7-92.7
					C122.8,0.7,113.8,1.1,99.1,1.1z"/>
			</defs>
			<clipPath id="SVGID_2_">
				<use xlink:href="#SVGID_1_"  style="overflow:visible;"/>
			</clipPath>
			<g class="st4">
				<polygon class="st5" points="132.3,6.9 17.6,6.9 27,187.7 141.7,187.7 				"/>
				<g>
					<polygon class="st6" points="143,186.5 28.2,186.5 18.7,5.7 133.6,5.7 					"/>
					<line class="st7" x1="36.9" y1="45.4" x2="119.5" y2="45.4"/>
					<line class="st7" x1="37.6" y1="57.4" x2="120.2" y2="57.3"/>
					<line class="st7" x1="38.2" y1="69.4" x2="120.8" y2="69.4"/>
					<line class="st7" x1="38.8" y1="81.4" x2="121.4" y2="81.3"/>
					<line class="st7" x1="39.4" y1="93.4" x2="122" y2="93.4"/>
					<line class="st7" x1="40.1" y1="105.4" x2="122.7" y2="105.4"/>
					<line class="st7" x1="40.7" y1="117.4" x2="123.3" y2="117.4"/>
					<line class="st7" x1="41.3" y1="129.4" x2="123.9" y2="129.4"/>
					<line class="st7" x1="42" y1="141.4" x2="124.5" y2="141.4"/>
					<line class="st7" x1="42.6" y1="153.4" x2="125.2" y2="153.4"/>
					<line class="st7" x1="43.2" y1="165.5" x2="125.8" y2="165.4"/>
					<text transform="matrix(1.0059 -2.556063e-04 5.227382e-02 0.9986 40.0199 25.5957)" class="st8 st9 st10">NYILATKOZAT</text>
				</g>
				<g>
					<path class="st11" d="M-11.9,209.9c0,0,5.9-19.7,13.5-29.4c7.8-9.8,17.8-27.3,19.8-27s0.7,2.9-3.9,11.9
						c-4.7,9.1-7.4,12.9-5.7,11.7c1.7-1.2,19.2-27.6,21-28.4c0,0,4.2-0.7,3.2,2.9c-1,3.6-19.6,33.1-16.7,31
						c2.9-2.1,20.4-30.6,22.2-30.8c1.8-0.2,4.4-0.8,3.7,3.2c-0.7,4.2-20.1,32.6-18.1,31.8c1.8-0.8,15.4-21.4,17.9-24.8
						c2.4-3.5,7.8-5,5.7,0.7c-2,5.7-23.8,40.1-23.5,41.3c0.4,1.2,5.4-2.4,5.9-3.5s7.9-12.3,13.5-8.8c0,0-4.8,10.9-10,18.3
						C31,217.3-11.9,209.9-11.9,209.9z"/>
					<path class="st11" d="M46.1,192.3c0,0-1-1.1-1.9,0.2c-1,1.3-4.8,6.6-1.9,7.5C42.3,200.1,45.2,194.6,46.1,192.3z"/>
					<path class="st11" d="M47.6,159.5c0.8-1.2,3.9-1.8,3.2,1.9c0,0-1.3,3.1-2,3.5s-3.9-0.2-2.6-2.7
						C47.6,159.5,47.6,159.5,47.6,159.5z"/>
					<path class="st11" d="M42,151.6c1-1.1,4.2-1.4,3.1,2.1c0,0-1.6,3-2.3,3.3c-0.7,0.2-3.9-0.6-2.4-3C42,151.6,42,151.6,42,151.6z"
						/>
					<path class="st11" d="M33,148.2c1-1.1,4.2-1.4,3.1,2.1c0,0-1.6,3-2.3,3.3c-0.7,0.2-3.9-0.6-2.4-3C33,148.2,33,148.2,33,148.2z"
						/>
					<path class="st11" d="M20.1,153.2c0.7-0.8,3.1-1.1,2.4,1.7c0,0-1.2,2.3-1.7,2.5c-0.5,0.2-3-0.4-1.8-2.3
						C20.1,153.2,20.1,153.2,20.1,153.2z"/>
				</g>
				<g>
					<path class="st11" d="M94.9,101.7c0,0,0.7,9.2,12.4,3.2c11.7-6,8.5-1.1,8.5-1.1l-0.5-9.4l-9.9-3.9L94.9,101.7z"/>
					<path class="st11" d="M146.1,137.5c0,0-8.4-25.1-9.4-35.2c-1.1-10.3-10.4-8.1-10.4-8.1l-19.1-11.3l-3.7-0.4
						c-9.3,16.7-17.7,16.4-16.8,17.1c10.4,8,17.9-2.1,17.9-2.1c8.5,4.1,10.5,10.7,10.5,10.7s0.8,5.9-6.2,7.8
						c-7.2,1.9-10.5-10.7-16.2-12.2c-5.7-1.4-6.2-1.3-6.2-1.3l4.2,12.9l9.9,13.8c4.2,2.3,22.2,18,22.2,18l3.6,5.9l33.1,69.7l35-11.5
						L146.1,137.5z"/>
					<g>
						<g>
							<path class="st11" d="M86.3,104.1h-0.1C86.2,104.2,86.3,104.2,86.3,104.1L86.3,104.1L86.3,104.1z"/>
							<path class="st11" d="M86,101.8L86,101.8h-0.1C85.8,101.8,85.8,101.8,86,101.8L86,101.8z"/>
							<path class="st11" d="M86.8,106.5L86.8,106.5L86.8,106.5z"/>
							<path class="st11" d="M85.5,99.5L85.5,99.5L85.5,99.5z"/>
							<path class="st11" d="M86.8,106.5L86.8,106.5L86.8,106.5z"/>
							<polygon class="st11" points="86.8,106.5 86.8,106.5 86.8,106.5 							"/>
							<polygon class="st11" points="86.3,104.2 86.3,104.2 86.3,104.2 							"/>
							<polygon class="st11" points="86.3,104.2 86.3,104.2 86.3,104.1 86.3,104.1 							"/>
							<polygon class="st11" points="86,101.8 86,101.8 86,101.8 							"/>
							<path class="st11" d="M85.5,99.5L85.5,99.5L85.5,99.5z"/>
							<polygon class="st11" points="85.5,99.5 85.5,99.5 85.5,99.5 							"/>
							<polygon class="st11" points="86,101.8 86,101.8 86,101.8 							"/>
							<polygon class="st11" points="86.8,106.5 86.8,106.5 86.3,104.2 86.3,104.2 							"/>
							<polygon class="st11" points="86.3,104.1 86.3,104.1 86,101.8 86,101.8 							"/>
							<g>
								<polygon class="st11" points="86.3,104.2 86.8,106.5 86.8,106.5 158.4,93.8 158,91.5 								"/>
								<polygon class="st11" points="86,101.8 86.3,104.1 86.3,104.2 158,91.5 157.6,89.1 								"/>
								<polygon class="st11" points="85.5,99.5 86,101.8 86,101.8 157.6,89.1 157.1,86.7 								"/>
								<path class="st11" d="M86.3,104.2h-0.1c-1.1,0.2-1.8,0.8-1.7,1.6c0,0.2,0.1,0.4,0.4,0.5l1.9,0.2l0,0L86.3,104.2z"/>
								<path class="st11" d="M86,101.8h-0.1c-1.1,0.2-1.8,0.8-1.7,1.6c0.1,0.6,1.1,1.1,2.1,0.8h0.1L86,101.8z"/>
								<path class="st11" d="M85.5,99.5L85.5,99.5l-1.8,1c-0.1,0.2-0.1,0.4-0.1,0.6c0.1,0.6,1.1,1.1,2.1,0.8h0.1L85.5,99.5z"/>
							</g>
							<polygon class="st11" points="86,101.8 85.5,99.5 85.5,99.5 							"/>
							<g>
								<path class="st11" d="M84.8,106.3c-0.1-0.1-0.2-0.4-0.4-0.5c-0.1-0.6,0.6-1.3,1.7-1.6c-1.1,0.2-2-0.2-2.1-0.8
									c-0.1-0.6,0.6-1.3,1.7-1.6c-1.1,0.2-2-0.2-2.1-0.8c0-0.2,0-0.4,0.1-0.6l-4.4,2.5l0.5,2.6L84.8,106.3z"/>
								<polygon class="st11" points="79.8,105.4 79.3,102.9 75.7,104.8 								"/>
							</g>
						</g>
						
							<rect x="156.3" y="86.7" transform="matrix(0.9846 -0.1751 0.1751 0.9846 -13.3652 29.0148)" class="st11" width="2.9" height="7.2"/>
						<path class="st11" d="M158.4,93.8l3.3-0.6c1.3-0.2,2.3-0.7,2.1-1.2l-1-5.5c-0.1-0.5-1.2-0.6-2.4-0.4l-3.3,0.6L158.4,93.8z"/>
					</g>
					<path class="st11" d="M86.7,99.2c0,0,5.7-2.5,8.2-5.1c0,0,2.6,1.4,0.2,2.5s-6.3,4.5-8.5,2.9"/>
					<path class="st11" d="M86.3,102.4c0,0,4.5,1,5,3.8c0.5,2.9,2.7,6.6-1.4,7.2L86.3,102.4z"/>
					<polygon class="st11" points="157.6,152.7 130.1,162.6 134.4,174.2 164.8,162.6 					"/>
					<path class="st11" d="M155.8,162.6c0-4.7-3.8-8.5-8.5-8.5c-4.7,0-8.5,3.8-8.5,8.5c0,4.7,3.8,8.5,8.5,8.5
						C152.1,171,155.8,167.3,155.8,162.6z"/>
					
						<rect x="146.2" y="155.7" transform="matrix(0.8738 -0.4863 0.4863 0.8738 -59.2639 91.3381)" class="st11" width="0.4" height="8.2"/>
					
						<rect x="143.2" y="163.9" transform="matrix(0.9107 -0.413 0.413 0.9107 -54.7539 74.9188)" class="st11" width="5.4" height="0.4"/>
				</g>
				<g>
					<path class="st12" d="M-10.9,209.4c0,0,5.9-19.7,13.5-29.4c7.8-9.8,17.8-27.3,19.8-27s0.7,2.9-3.9,11.9
						c-4.7,9.1-7.4,12.9-5.7,11.7c1.7-1.2,19.2-27.6,21-28.4c0,0,4.2-0.7,3.2,2.9s-19.6,33.1-16.7,31c2.9-2.1,20.4-30.6,22.2-30.8
						c1.8-0.2,4.4-0.8,3.7,3.2c-0.7,4.2-19.9,32.6-18.1,31.8c1.8-0.8,15.4-21.4,17.9-24.8c2.4-3.5,7.8-5,5.7,0.7
						c-2,5.7-23.8,40.1-23.5,41.3c0.4,1.2,5.4-2.4,5.9-3.5c0.5-1.1,7.9-12.3,13.5-8.8c0,0-4.8,10.9-10,18.3
						C32.2,216.8-10.9,209.4-10.9,209.4z"/>
					<path class="st13" d="M47.3,191.7c0,0-1-1.1-1.9,0.2c-1,1.3-4.8,6.6-1.9,7.5C43.5,199.6,46.4,194.1,47.3,191.7z"/>
					<path class="st13" d="M48.7,158.9c0.8-1.2,3.9-1.8,3.2,1.9c0,0-1.3,3.1-2,3.5c-0.7,0.4-3.9-0.2-2.6-2.7
						C48.7,158.9,48.7,158.9,48.7,158.9z"/>
					<path class="st13" d="M43.1,151.1c1-1.1,4.2-1.4,3.1,2.1c0,0-1.6,3-2.3,3.3c-0.7,0.2-3.9-0.6-2.4-3
						C43.1,151.1,43.1,151.1,43.1,151.1z"/>
					<path class="st13" d="M34.1,147.7c1-1.1,4.2-1.4,3.1,2.1c0,0-1.6,3-2.3,3.3c-0.7,0.2-3.9-0.6-2.4-3
						C34.1,147.7,34.1,147.7,34.1,147.7z"/>
					<path class="st13" d="M21.3,152.7c0.7-0.8,3.1-1.1,2.4,1.7c0,0-1.2,2.3-1.7,2.5c-0.5,0.2-3-0.4-1.8-2.3
						C21.3,152.7,21.3,152.7,21.3,152.7z"/>
				</g>
				<g>
					<path class="st14" d="M96,101.2c0,0,0.7,9.2,12.4,3.2c11.7-6,8.5-1.1,8.5-1.1l-0.5-9.4l-9.9-3.9L96,101.2z"/>
					<path class="st12" d="M147.2,136.9c0,0-8.4-25.1-9.4-35.2c-1.1-10.3-10.4-8.1-10.4-8.1l-19.1-11.3l-3.7-0.4
						C95.3,98.6,86.9,98.3,87.8,99c10.4,8,17.9-2.1,17.9-2.1c8.5,4.1,10.5,10.7,10.5,10.7s0.8,5.9-6.2,7.8
						c-7.2,1.9-10.5-10.7-16.2-12.2c-5.7-1.4-6.2-1.3-6.2-1.3l4.2,12.9l9.9,13.8c4.2,2.3,22.2,18,22.2,18l3.6,5.9l33.1,69.7l35-11.5
						L147.2,136.9z"/>
					<g>
						<g>
							<path class="st15" d="M87.5,103.6h-0.1C87.4,103.7,87.4,103.6,87.5,103.6L87.5,103.6L87.5,103.6z"/>
							<path class="st15" d="M87,101.4L87,101.4h-0.1H87L87,101.4z"/>
							<path class="st15" d="M87.9,106L87.9,106L87.9,106z"/>
							<path class="st15" d="M86.7,99L86.7,99L86.7,99z"/>
							<path class="st15" d="M87.9,106L87.9,106L87.9,106z"/>
							<polygon class="st15" points="87.9,106 87.9,106 87.9,106 							"/>
							<polygon class="st15" points="87.5,103.6 87.5,103.6 87.5,103.6 							"/>
							<polygon class="st16" points="87.5,103.6 87.5,103.6 87.5,103.6 							"/>
							<polygon class="st16" points="87,101.4 87,101.4 87,101.4 							"/>
							<path class="st17" d="M86.7,99L86.7,99L86.7,99z"/>
							<polygon class="st17" points="86.7,99 86.7,99 86.7,99 							"/>
							<polygon class="st17" points="87,101.4 87,101.4 87,101.4 							"/>
							<polygon class="st15" points="87.9,106 87.9,106 87.5,103.6 87.5,103.6 							"/>
							<polygon class="st16" points="87.5,103.6 87.5,103.6 87,101.4 87,101.4 							"/>
							<g>
								<polygon class="st18" points="87.5,103.6 87.9,106 87.9,106 159.5,93.2 159.1,91 								"/>
								<polygon class="st16" points="87,101.4 87.5,103.6 87.5,103.6 159.1,91 158.7,88.6 								"/>
								<polygon class="st17" points="86.7,99 87,101.4 87,101.4 158.7,88.6 158.3,86.2 								"/>
								<path class="st19" d="M87.5,103.6h-0.1c-1.1,0.2-1.8,0.8-1.7,1.6c0,0.2,0.1,0.4,0.4,0.5l1.9,0.2l0,0L87.5,103.6z"/>
								<path class="st16" d="M87,101.4h-0.1c-1.1,0.2-1.8,0.8-1.7,1.6c0.1,0.6,1.1,1.1,2.1,0.8h0.1L87,101.4z"/>
								<path class="st17" d="M86.7,99L86.7,99l-1.8,1c-0.1,0.2-0.1,0.4-0.1,0.6c0.1,0.6,1.1,1.1,2.1,0.8H87L86.7,99z"/>
							</g>
							<polygon class="st17" points="87,101.4 86.7,99 86.7,99 							"/>
							<g>
								<path class="st15" d="M86,105.8c-0.1-0.1-0.2-0.4-0.4-0.5c-0.1-0.6,0.6-1.3,1.7-1.6c-1.1,0.2-2-0.2-2.1-0.8
									c-0.1-0.6,0.6-1.3,1.7-1.6c-1.1,0.2-2-0.2-2.1-0.8c0-0.2,0-0.4,0.1-0.6l-4.4,2.5l0.5,2.6L86,105.8z"/>
								<polygon class="st20" points="80.9,104.9 80.5,102.3 76.9,104.3 								"/>
							</g>
						</g>
						
							<rect x="157.4" y="86.2" transform="matrix(0.9846 -0.1751 0.1751 0.9846 -13.2666 29.1962)" class="st21" width="2.9" height="7.2"/>
						<path class="st15" d="M159.5,93.2l3.3-0.6c1.3-0.2,2.3-0.7,2.1-1.2l-1-5.5c-0.1-0.5-1.2-0.6-2.4-0.4l-3.3,0.6L159.5,93.2z"/>
					</g>
					<path class="st13" d="M87.8,98.7c0,0,5.7-2.5,8.2-5.1c0,0,2.6,1.4,0.2,2.5c-2.4,1.1-6.3,4.5-8.5,2.9"/>
					<path class="st13" d="M87.4,101.8c0,0,4.5,1,5,3.8c0.5,2.9,2.7,6.6-1.4,7.2L87.4,101.8z"/>
					<polygon class="st22" points="158.7,152.2 131.2,162.1 135.6,173.6 165.8,162.1 					"/>
					<path class="st23" d="M157,162.1c0-4.7-3.8-8.5-8.5-8.5c-4.7,0-8.5,3.8-8.5,8.5c0,4.7,3.8,8.5,8.5,8.5
						C153.2,170.5,157,166.7,157,162.1z"/>
					
						<rect x="147.4" y="155.2" transform="matrix(0.8738 -0.4863 0.4863 0.8738 -58.8701 91.854)" class="st24" width="0.4" height="8.2"/>
					
						<rect x="144.4" y="163.4" transform="matrix(0.9107 -0.413 0.413 0.9107 -54.4437 75.3665)" class="st24" width="5.4" height="0.4"/>
				</g>
			</g>
		</g>
	</g>
</g>
</svg>
