<?xml version="1.0" encoding="utf-8"?>
<!-- Generator: Adobe Illustrator 23.0.1, SVG Export Plug-In . SVG Version: 6.00 Build 0)  -->
<svg version="1.1" id="Layer_1" xmlns="http://www.w3.org/2000/svg" xmlns:xlink="http://www.w3.org/1999/xlink" x="0px" y="0px"
	 viewBox="0 0 198.4 198.4" style="enable-background:new 0 0 198.4 198.4;" xml:space="preserve">
<style type="text/css">
	.st0{fill:#2CAEA4;}
	.st1{fill:#24897F;}
	.st2{fill:#56453F;}
	.st3{fill:#92D6B5;}
	.st4{clip-path:url(#SVGID_2_);}
	.st5{fill:#FFF3E0;}
	.st6{fill:#FFE0B2;}
	.st7{fill:#FFC578;}
	.st8{fill:#D8A35D;}
	.st9{clip-path:url(#SVGID_4_);}
	.st10{opacity:0.5;fill:#723B05;}
	.st11{fill:#FFE8D7;}
	.st12{fill:none;stroke:#723B05;stroke-width:0.1549;stroke-miterlimit:10;}
	.st13{fill:#723B05;}
	.st14{font-family:'MyriadPro-Regular';}
	.st15{font-size:8.3735px;}
	.st16{clip-path:url(#SVGID_6_);}
	.st17{fill:#9C5E21;}
	.st18{fill:#EA4411;}
</style>
<g>
	<circle class="st0" cx="99.2" cy="103.2" r="93.5"/>
	<path class="st1" d="M179.6,57.9c-3-2.8-7.1,1.4-4.5,4.5c5.2,6.1,5.9,15.5,6.4,23.3c0.6,7.7,0.1,15.5-1.3,23.1
		c-2.9,15.1-9.6,29.1-19.3,41c-19.5,23.2-51.8,34.5-81.5,28.6c-10.5-2.1-14.9,14-4.4,16c37,7.1,76-6.6,98.9-36.9
		c11.2-14.8,17.1-32.2,18.6-50.7C193.8,90.8,192,69.4,179.6,57.9z"/>
	<path class="st2" d="M99.2,11.4c50.7,0,91.8,41.1,91.8,91.8c0,50.7-41.1,91.8-91.8,91.8c-50.7,0-91.8-41.1-91.8-91.8c0,0,0,0,0,0
		C7.5,52.5,48.5,11.5,99.2,11.4 M99.2,8C46.6,8,4,50.6,4,103.2s42.6,95.2,95.2,95.2s95.2-42.6,95.2-95.2C194.4,50.6,151.8,8,99.2,8
		C99.2,8,99.2,8,99.2,8z"/>
	<path class="st3" d="M99.2,11.4c50.7,0,91.8,41.1,91.8,91.8c0,50.7-41.1,91.8-91.8,91.8c-50.7,0-91.8-41.1-91.8-91.8c0,0,0,0,0,0
		C7.5,52.5,48.5,11.5,99.2,11.4 M99.2,8C46.6,8,4,50.6,4,103.2s42.6,95.2,95.2,95.2s95.2-42.6,95.2-95.2C194.4,50.6,151.8,8,99.2,8
		C99.2,8,99.2,8,99.2,8z"/>
	<g>
		<defs>
			<path id="SVGID_1_" d="M99.2,11.1C99.2,11.1,99.2,11.1,99.2,11.1C86.1,11.1,75-3.9,63.8,1C31.3,15.2,7.3,65.3,7.3,103
				c0,50.8,41.2,92,92,92c50.8,0,80.3-42.5,92-92C206.1,39.4,175.3-10.7,99.2,11.1z"/>
		</defs>
		<clipPath id="SVGID_2_">
			<use xlink:href="#SVGID_1_"  style="overflow:visible;"/>
		</clipPath>
		<g class="st4">
			<g>
				
					<rect x="34.2" y="64.6" transform="matrix(0.9346 -0.3557 0.3557 0.9346 -33.3327 46.5443)" class="st5" width="151.4" height="98.6"/>
				<path class="st6" d="M158,43.1l-131.3,50l0.8,2.2l79.1,39.3c0,0,7.6,4.7,14.6,2.1c0,0,3.1,0.1,7.3-10.1l30.2-81.5L158,43.1z"/>
				<path class="st5" d="M163.5,41.2L78.2,4.8c0,0-7.5-4.3-14.7-1.6c0,0-3.2-0.1-7.6,9.8L22,94.9L163.5,41.2z"/>
				<path class="st6" d="M158.6,42.7L78.4,7.1c0,0-7.1-4.2-13.7-1.7c0,0-3-0.1-7,9.3L26.7,92.8L158.6,42.7z"/>
				<path class="st7" d="M158.6,42.7L78.4,7.1c0,0-7.1-4.2-13.7-1.7c0,0-3-0.1-7,9.3L26.7,92.8L158.6,42.7z"/>
				<path class="st8" d="M22,94.9c-0.1,0.6,87.9,33.5,87.9,33.5l-8.5,14.2L22,94.9z"/>
				<polygon class="st5" points="56.7,186.9 146,152.9 22,94.9 21.9,95.5 				"/>
				<polygon class="st6" points="26.6,99.3 105.7,138.2 59.6,185.8 				"/>
				<path class="st8" d="M121.9,125.4c2.2-2.5,40.4-84.2,40.4-84.2l11.9,66.5L121.9,125.4z"/>
				<polygon class="st5" points="115.3,164.6 198.2,133.1 169.1,56.7 162.3,41.2 				"/>
				<polygon class="st6" points="160.8,46.3 136.3,121.6 194.9,134.3 				"/>
				<path class="st5" d="M56.7,186.9l48.8-58.8c0,0,8.9-14.7,26.5-9.5l66.1,14.4L56.7,186.9z"/>
				<g>
					<path class="st7" d="M132.9,130.1c1,2.7-3,6.8-9.1,9.1c-6.1,2.3-11.8,2-12.8-0.8c-1-2.7,3-6.8,9.1-9.1
						C126.1,127.1,131.9,127.4,132.9,130.1z"/>
					<path class="st7" d="M129.3,131.5c0.7,1.8-2,4.5-6.1,6.1c-4,1.5-7.9,1.3-8.6-0.5c-0.7-1.8,2-4.5,6.1-6.1
						C124.7,129.5,128.6,129.7,129.3,131.5z"/>
				</g>
			</g>
			<g>
				<defs>
					<path id="SVGID_3_" d="M167.5,28.3l-34.2,90.6c-3.5-1.2-16.3-3.5-22.9,4c-4.2,4.8-18.1,4.6-18.1,4.6L79.6,3.9l102.5-2.1V50
						L167.5,28.3z"/>
				</defs>
				<clipPath id="SVGID_4_">
					<use xlink:href="#SVGID_3_"  style="overflow:visible;"/>
				</clipPath>
				<g class="st9">
					<polygon class="st10" points="161,12.9 84.5,12.9 90.8,133.4 167.3,133.3 					"/>
					<g>
						<polygon class="st11" points="168.2,132.6 91.7,132.6 85.4,12.2 161.9,12.1 						"/>
						<line class="st12" x1="97.5" y1="38.5" x2="152.5" y2="38.5"/>
						<line class="st12" x1="97.9" y1="46.5" x2="152.9" y2="46.5"/>
						<line class="st12" x1="98.3" y1="54.5" x2="153.3" y2="54.5"/>
						<line class="st12" x1="98.7" y1="62.5" x2="153.8" y2="62.5"/>
						<line class="st12" x1="99.2" y1="70.5" x2="154.2" y2="70.5"/>
						<line class="st12" x1="99.6" y1="78.5" x2="154.6" y2="78.5"/>
						<line class="st12" x1="100" y1="86.5" x2="155" y2="86.5"/>
						<line class="st12" x1="100.4" y1="94.5" x2="155.4" y2="94.5"/>
						<line class="st12" x1="100.8" y1="102.5" x2="155.9" y2="102.5"/>
						<line class="st12" x1="101.3" y1="110.5" x2="156.3" y2="110.5"/>
						<line class="st12" x1="101.7" y1="118.5" x2="156.7" y2="118.5"/>
						<text transform="matrix(1.0059 -2.555979e-04 5.227208e-02 0.9986 99.5362 25.3669)" class="st13 st14 st15">NYILATKOZAT</text>
					</g>
				</g>
			</g>
			<g>
				<defs>
					<path id="SVGID_5_" d="M53.2,109.5l48.8,22.8c0,0,3.3-3.1,4.5-5.3c1.2-2.1,3.7-4.1,7.5-6.7c3.8-2.6,8.7-2.7,10.7-2.6
						c1.5,0.1,8.4,1,8.1,1.1l3.1-8.2l-5.8-7.7L86.6,88.5L81.4,72l-6.8-19.9L58.9,56l-12,23.1l2.3,23.9L53.2,109.5z"/>
				</defs>
				<clipPath id="SVGID_6_">
					<use xlink:href="#SVGID_5_"  style="overflow:visible;"/>
				</clipPath>
				<g class="st16">
					<path class="st17" d="M81.1,112.6c3.4,3,7.1,5.5,11.2,7.5c0.7,0.1,1.3,0.3,2,0.4c7.8,1.5,16.7,2.1,23.6,6.4
						c2.3,0.5,4.5,1.3,6.7,2.2c2.5,1.2,4.7,2.9,6.5,5c1.1,1.4,2.9,3.4,2.8,5.2c0,0.2,0.1,1.1,0.3,0.5c3-8.4-1.6-17.5-8.9-21.7
						c-9.5-5.5-21-4.9-30.8-9.6C85,104,77.1,96.8,71.6,88c-2.3-3.6-4.1-7.4-5.5-11.5c-0.9-3.1-1.3-6.4-1.2-9.6l-0.5,0.1
						C63.4,83.6,68.7,101.4,81.1,112.6z"/>
					<path class="st17" d="M104.3,98c-9.8-1.8-19.6-6.2-26.5-13.6c-4.8-5-8-11.4-9.3-18.2l-1.1,0.3c1.3,14.2,8.4,27.9,20.4,36
						c8,5.4,17.9,6.2,27.2,8.1c8.2,1.7,24.2,7.4,20.9,18.7c-0.1,0.1,0,0.9,0.1,0.7c4-6.4,1.1-16.6-3.6-21.7
						C125.4,100.5,114,99.8,104.3,98z"/>
					<path class="st18" d="M68,58.6c0,1.3,0,2.6,0.1,3.9c1.7-0.9,3.3-2,4.8-3.3c0-0.1,0.1,0.5,0,0.7c-1.5,1.3-3.1,2.4-4.8,3.4
						c0.1,1,0.2,1.9,0.4,2.8c0.6-0.1,1.2-0.3,1.8-0.5c1.9-0.6,2.2-2.5,2.6-4.2c0.4-1.9,0.4-3.9-0.1-5.9l-0.6,0.1
						C70.9,56.8,69.5,57.7,68,58.6z"/>
					<path class="st18" d="M65.5,59.9c-0.2,1.3-0.4,2.7-0.5,4.1c0.8-0.3,1.5-0.6,2.3-1c0-1.3,0-2.7,0.1-4
						C66.8,59.3,66.2,59.6,65.5,59.9z"/>
					<path class="st18" d="M65,64.9c0,0.6-0.1,1.3-0.1,1.9c0.9-0.1,1.8-0.3,2.6-0.4c-0.1-0.9-0.1-1.7-0.2-2.6
						C66.6,64.2,65.8,64.6,65,64.9z"/>
					<path class="st18" d="M70.9,56c-0.9,0.2-1.8,0.4-2.7,0.7c0,0.4-0.1,0.7-0.1,1.1C69,57.2,69.9,56.6,70.9,56z"/>
					<path class="st18" d="M61,66.3c-0.1,0-0.2-1.1,0.1-1.2c1.2-0.3,2.4-0.6,3.5-1c0.2-1.4,0.3-2.7,0.6-4.1
						c-1.4,0.6-2.8,1.2-4.3,1.6c-0.1,0-0.2-0.8,0.1-0.9c1.5-0.4,3-1,4.4-1.6l0.2-1c0.1-0.6,0.2,0.3,0.2,0.5L65.7,59
						c0.6-0.3,1.2-0.5,1.7-0.9l0.1-1.3c-2.4,0.7-4.7,1.6-6.9,2.8c-0.5,3.4,0,8,1,7.8c1-0.2,1.9-0.3,2.8-0.4c0-0.6,0.1-1.2,0.1-1.8
						C63.4,65.6,62.2,66,61,66.3z"/>
					<path class="st18" d="M65.7,58.6c0-0.2-0.1-1.1-0.2-0.5l-0.2,1l0.3-0.1L65.7,58.6z"/>
					<path class="st18" d="M65.5,59.9L65.2,60c-0.2,1.3-0.4,2.7-0.6,4.1l0.4-0.1C65.1,62.6,65.3,61.2,65.5,59.9z"/>
					<path class="st18" d="M65,64.9c-0.1,0.1-0.3,0.1-0.4,0.2c-0.1,0.6-0.1,1.2-0.1,1.8l0.5-0.1C64.9,66.2,64.9,65.6,65,64.9z"/>
					<path class="st18" d="M68.1,56.6l-0.6,0.2l-0.1,1.3l0.6-0.3C68,57.4,68.1,57,68.1,56.6z"/>
					<path class="st18" d="M68.2,63.4c-0.3,0.2-0.6,0.3-0.8,0.5c0,0.9,0.1,1.7,0.2,2.6l1.1-0.2C68.4,65.3,68.3,64.3,68.2,63.4z"/>
					<path class="st18" d="M67.3,63c0.3-0.1,0.5-0.3,0.8-0.4c-0.1-1.3-0.1-2.6-0.1-4L67.4,59C67.3,60.3,67.3,61.6,67.3,63z"/>
					<path class="st18" d="M61.1,65.1c-0.3,0.1-0.2,1.2-0.1,1.2c1.2-0.3,2.4-0.7,3.5-1.2l0.1-1C63.5,64.5,62.3,64.8,61.1,65.1z"/>
					<path d="M61.1,65.1c-0.3,0.1-0.2,1.2-0.1,1.2c1.2-0.3,2.4-0.7,3.5-1.2l0.1-1C63.5,64.5,62.3,64.8,61.1,65.1z"/>
					<path class="st18" d="M65,63.9c0,0.3-0.1,0.7-0.1,1c0.8-0.3,1.6-0.7,2.4-1.1c0-0.3,0-0.6,0-0.9C66.6,63.3,65.8,63.6,65,63.9z"
						/>
					<path d="M65,63.9c0,0.3-0.1,0.7-0.1,1c0.8-0.3,1.6-0.7,2.4-1.1c0-0.3,0-0.6,0-0.9C66.6,63.3,65.8,63.6,65,63.9z"/>
					<path class="st18" d="M72.9,59.3c-1.5,1.2-3.1,2.3-4.9,3.2l0.1,0.8c1.7-1,3.3-2.1,4.8-3.4C73.1,59.8,73,59.2,72.9,59.3z"/>
					<path d="M72.9,59.3c-1.5,1.2-3.1,2.3-4.9,3.2l0.1,0.8c1.7-1,3.3-2.1,4.8-3.4C73.1,59.8,73,59.2,72.9,59.3z"/>
					<path class="st18" d="M64.6,64.1l-0.1,1c0.1-0.1,0.3-0.1,0.4-0.2c0-0.3,0-0.7,0.1-1L64.6,64.1z"/>
					<path d="M64.6,64.1l-0.1,1c0.1-0.1,0.3-0.1,0.4-0.2c0-0.3,0-0.7,0.1-1L64.6,64.1z"/>
					<path class="st18" d="M67.3,63c0,0.3,0,0.6,0,0.9c0.3-0.1,0.6-0.3,0.8-0.5l-0.1-0.8C67.8,62.7,67.6,62.8,67.3,63z"/>
					<path d="M67.3,63c0,0.3,0,0.6,0,0.9c0.3-0.1,0.6-0.3,0.8-0.5l-0.1-0.8C67.8,62.7,67.6,62.8,67.3,63z"/>
					<path class="st18" d="M61,60.7c-0.2,0.1-0.1,0.9-0.1,0.9c1.5-0.4,2.9-1,4.3-1.6l0.2-0.9C64,59.7,62.5,60.3,61,60.7z"/>
					<path d="M61,60.7c-0.2,0.1-0.1,0.9-0.1,0.9c1.5-0.4,2.9-1,4.3-1.6l0.2-0.9C64,59.7,62.5,60.3,61,60.7z"/>
					<path class="st18" d="M67.4,59l0.1-0.9c-0.6,0.3-1.1,0.6-1.7,0.9l-0.2,0.9C66.2,59.6,66.8,59.3,67.4,59z"/>
					<path d="M67.4,59l0.1-0.9c-0.6,0.3-1.1,0.6-1.7,0.9l-0.2,0.9C66.2,59.6,66.8,59.3,67.4,59z"/>
					<path class="st18" d="M68,58.6c1.5-0.9,2.9-1.8,4.3-2.9c-0.5,0.1-1,0.2-1.4,0.3c-0.9,0.6-1.8,1.2-2.8,1.8L68,58.6z"/>
					<path d="M68,58.6c1.5-0.9,2.9-1.8,4.3-2.9c-0.5,0.1-1,0.2-1.4,0.3c-0.9,0.6-1.8,1.2-2.8,1.8L68,58.6z"/>
					<path class="st18" d="M65.7,58.9l-0.3,0.1L65.2,60l0.3-0.1L65.7,58.9z"/>
					<path d="M65.7,58.9l-0.3,0.1L65.2,60l0.3-0.1L65.7,58.9z"/>
					<path class="st18" d="M67.4,59l0.6-0.4l0-0.8l-0.6,0.3L67.4,59z"/>
					<path d="M67.4,59l0.6-0.4l0-0.8l-0.6,0.3L67.4,59z"/>
					<path class="st17" d="M71,135.7c7.9,7.1,17.5,10.8,27.8,12.7c5.3,0.9,10.8,1.5,15.7,3.9c2.5,1.2,4.7,2.9,6.5,5
						c1.1,1.4,2.9,3.4,2.8,5.2c0,0.2,0.1,1.1,0.3,0.5c3-8.4-1.6-17.5-8.9-21.7c-9.5-5.5-21-4.9-30.8-9.6
						c-9.4-4.6-17.3-11.7-22.8-20.6c-2.3-3.6-4.1-7.4-5.5-11.5c-0.9-3.1-1.3-6.4-1.2-9.7l-0.5,0.1C53.3,106.7,58.5,124.5,71,135.7z"
						/>
					<path class="st17" d="M67.7,107.5c-4.8-5.1-8-11.4-9.3-18.2c-0.4,0.1-0.7,0.2-1.1,0.2c1.3,14.2,8.4,27.9,20.4,36
						c8,5.4,17.9,6.2,27.2,8.1c8.2,1.7,24.2,7.4,20.9,18.7c-0.1,0.1,0,0.9,0.1,0.7c4-6.4,1.1-16.6-3.6-21.7
						c-7.1-7.8-18.5-8.4-28.2-10.2C84.4,119.3,74.6,114.9,67.7,107.5z"/>
					<path class="st18" d="M54.8,88.1c0,0.6-0.1,1.3-0.1,1.9c0.9-0.1,1.8-0.3,2.6-0.4c-0.1-0.9-0.1-1.8-0.2-2.6
						C56.4,87.4,55.6,87.7,54.8,88.1z"/>
					<path class="st18" d="M50.9,89.4c-0.1,0-0.2-1.1,0.1-1.2c1.2-0.3,2.4-0.6,3.5-1c0.1-1.4,0.3-2.7,0.6-4.1
						c-1.4,0.6-2.8,1.2-4.2,1.6c-0.1,0-0.2-0.8,0-0.9c1.5-0.4,3-1,4.4-1.6l0.2-1c0.1-0.6,0.2,0.3,0.2,0.5l-0.1,0.3
						c0.6-0.3,1.2-0.5,1.7-0.9c0.1-0.9,0.2-1.8,0.3-2.7c0.2-1.4,0.5-0.2,0.5,0.6c-0.1,0.6-0.1,1.2-0.1,1.8c1.5-0.9,3-1.9,4.4-3
						c0-0.1,0.2,0.6,0,0.8c-1.4,1.1-2.9,2.1-4.4,3c0,1.3,0,2.6,0.1,4c1.7-0.9,3.3-2,4.8-3.3c0-0.1,0.1,0.6,0,0.7
						c-1.5,1.3-3.1,2.4-4.8,3.4c0.1,1,0.2,1.9,0.4,2.8c0.6-0.1,1.2-0.3,1.8-0.5c1.9-0.6,2.2-2.5,2.6-4.2c0.5-2.5,0.3-5-0.4-7.4
						c-0.1-0.4-0.3-0.8-0.7-0.9c-3.2,0.5-6.4,1.8-9.4,2.8c-2.5,0.8-2.1,11.6-0.7,11.3c0.9-0.1,1.9-0.3,2.8-0.4
						c0-0.6,0.1-1.2,0.1-1.8C53.3,88.7,52.1,89.1,50.9,89.4z"/>
					<path class="st18" d="M55.4,83c-0.2,1.3-0.4,2.7-0.5,4.1c0.8-0.3,1.5-0.6,2.3-1c0-1.3,0-2.7,0.1-4C56.6,82.4,56,82.7,55.4,83z"
						/>
					<path class="st18" d="M54.8,88.1l-0.4,0.2c-0.1,0.6-0.1,1.2-0.1,1.8l0.5-0.1C54.8,89.3,54.8,88.7,54.8,88.1z"/>
					<path class="st18" d="M55.4,83l-0.3,0.1c-0.2,1.3-0.4,2.7-0.6,4.1l0.4-0.1C55,85.7,55.2,84.3,55.4,83z"/>
					<path class="st18" d="M55.6,81.7c0-0.2-0.1-1.1-0.2-0.5l-0.2,1l0.3-0.1L55.6,81.7z"/>
					<path class="st18" d="M58,86.5c-0.3,0.2-0.6,0.3-0.8,0.5c0,0.9,0.1,1.7,0.2,2.6c0.4-0.1,0.7-0.1,1.1-0.2
						C58.3,88.4,58.1,87.4,58,86.5z"/>
					<path class="st18" d="M57.2,86.1c0.3-0.1,0.5-0.3,0.8-0.4c-0.1-1.3-0.1-2.6-0.1-4c-0.2,0.1-0.4,0.2-0.6,0.4
						C57.2,83.4,57.2,84.7,57.2,86.1z"/>
					<path class="st18" d="M58,79c0.1-0.8-0.3-2-0.5-0.6c-0.1,0.9-0.2,1.8-0.3,2.7l0.6-0.3C57.9,80.3,58,79.6,58,79z"/>
					<path class="st18" d="M54.9,87.1l-0.1,1c0.8-0.3,1.6-0.7,2.4-1.1l0-0.9C56.4,86.4,55.7,86.8,54.9,87.1z"/>
					<path d="M54.9,87.1l-0.1,1c0.8-0.3,1.6-0.7,2.4-1.1l0-0.9C56.4,86.4,55.7,86.8,54.9,87.1z"/>
					<path class="st18" d="M62.8,82.4c-1.5,1.3-3.1,2.4-4.8,3.3c0,0.3,0,0.5,0.1,0.8c1.7-1,3.3-2.1,4.8-3.4
						C63,83,62.9,82.4,62.8,82.4z"/>
					<path d="M62.8,82.4c-1.5,1.3-3.1,2.4-4.8,3.3c0,0.3,0,0.5,0.1,0.8c1.7-1,3.3-2.1,4.8-3.4C63,83,62.9,82.4,62.8,82.4z"/>
					<path class="st18" d="M51,88.2c-0.3,0.1-0.2,1.2-0.1,1.2c1.2-0.3,2.4-0.7,3.5-1.2l0.1-1C53.4,87.6,52.2,88,51,88.2z"/>
					<path d="M51,88.2c-0.3,0.1-0.2,1.2-0.1,1.2c1.2-0.3,2.4-0.7,3.5-1.2l0.1-1C53.4,87.6,52.2,88,51,88.2z"/>
					<path class="st18" d="M54.5,87.2l-0.1,1l0.4-0.2l0.1-1L54.5,87.2z"/>
					<path d="M54.5,87.2l-0.1,1l0.4-0.2l0.1-1L54.5,87.2z"/>
					<path class="st18" d="M57.2,86.1l0,0.9c0.3-0.2,0.6-0.3,0.8-0.5c0-0.3,0-0.5-0.1-0.8C57.7,85.8,57.4,86,57.2,86.1z"/>
					<path d="M57.2,86.1l0,0.9c0.3-0.2,0.6-0.3,0.8-0.5c0-0.3,0-0.5-0.1-0.8C57.7,85.8,57.4,86,57.2,86.1z"/>
					<path class="st18" d="M57.9,81.7c1.6-0.9,3-1.9,4.4-3c0.2-0.1,0.1-0.8,0-0.8c-1.4,1.1-2.9,2.1-4.4,3
						C57.9,81.1,57.9,81.4,57.9,81.7z"/>
					<path d="M57.9,81.7c1.6-0.9,3-1.9,4.4-3c0.2-0.1,0.1-0.8,0-0.8c-1.4,1.1-2.9,2.1-4.4,3C57.9,81.1,57.9,81.4,57.9,81.7z"/>
					<path class="st18" d="M50.9,83.8c-0.2,0.1-0.1,0.9,0,0.9c1.4-0.4,2.9-1,4.2-1.6l0.2-0.9C53.8,82.8,52.4,83.4,50.9,83.8z"/>
					<path d="M50.9,83.8c-0.2,0.1-0.1,0.9,0,0.9c1.4-0.4,2.9-1,4.2-1.6l0.2-0.9C53.8,82.8,52.4,83.4,50.9,83.8z"/>
					<path class="st18" d="M57.2,82.1l0.1-0.9c-0.6,0.3-1.1,0.6-1.7,0.9L55.4,83C56,82.7,56.6,82.4,57.2,82.1z"/>
					<path d="M57.2,82.1l0.1-0.9c-0.6,0.3-1.1,0.6-1.7,0.9L55.4,83C56,82.7,56.6,82.4,57.2,82.1z"/>
					<path class="st18" d="M55.6,82.1l-0.3,0.1l-0.2,0.9l0.3-0.1L55.6,82.1z"/>
					<path d="M55.6,82.1l-0.3,0.1l-0.2,0.9l0.3-0.1L55.6,82.1z"/>
					<path class="st18" d="M57.2,82.1c0.2-0.1,0.4-0.2,0.6-0.4c0-0.3,0-0.6,0-0.8l-0.6,0.3L57.2,82.1z"/>
					<path d="M57.2,82.1c0.2-0.1,0.4-0.2,0.6-0.4c0-0.3,0-0.6,0-0.8l-0.6,0.3L57.2,82.1z"/>
				</g>
			</g>
		</g>
	</g>
</g>
</svg>
