<?xml version="1.0" encoding="utf-8"?>
<!-- Generator: Adobe Illustrator 23.0.1, SVG Export Plug-In . SVG Version: 6.00 Build 0)  -->
<svg version="1.1" id="Layer_1" xmlns="http://www.w3.org/2000/svg" xmlns:xlink="http://www.w3.org/1999/xlink" x="0px" y="0px"
	 viewBox="0 0 375 358" style="enable-background:new 0 0 375 358;" xml:space="preserve">
<style type="text/css">
	.st0{opacity:0.1;}
	.st1{fill-rule:evenodd;clip-rule:evenodd;fill:none;stroke:#2CAEA4;stroke-width:2.6798;stroke-miterlimit:22.9256;}
	.st2{fill-rule:evenodd;clip-rule:evenodd;fill:#FFFFFF;stroke:#ED1C24;stroke-width:6.6997;stroke-miterlimit:22.9256;}
	.st3{fill-rule:evenodd;clip-rule:evenodd;fill:#ED1C24;stroke:#FFFFFF;stroke-width:0.2042;stroke-miterlimit:22.9256;}
	.st4{fill-rule:evenodd;clip-rule:evenodd;fill:none;stroke:#2CAEA4;stroke-width:6.6997;stroke-miterlimit:22.9256;}
	.st5{fill-rule:evenodd;clip-rule:evenodd;fill:#2CAEA4;stroke:#FFFFFF;stroke-width:0.2042;stroke-miterlimit:22.9256;}
	.st6{fill:#FFFFFF;}
</style>
<g class="st0">
	<ellipse class="st1" cx="187.2" cy="177.5" rx="161" ry="161"/>
	<ellipse class="st2" cx="187.2" cy="177.5" rx="151.9" ry="151.9"/>
	<path class="st3" d="M183.3,120.7c-3-36.6-35.6-47.9-58.6-47.4C64.3,74.7,35.3,152.4,68,199.7c14.6,21.1,42.8,36.7,60.1,51
		c14.7,12.1,47.8,40.7,55.5,54.4c8-13.6,40.7-39.1,58.9-52c18.6-13.2,40.5-24.3,61.5-49.2c37.1-43.6,6.3-129.2-56.7-130.7
		C223.3,72.8,186.4,84,183.3,120.7z"/>
	<ellipse class="st4" cx="187.2" cy="177.5" rx="151.9" ry="151.9"/>
	<path class="st3" d="M183.3,120.7c-3-36.6-35.6-47.9-58.6-47.4C64.3,74.7,35.3,152.4,68,199.7c14.6,21.1,42.8,36.7,60.1,51
		c14.7,12.1,47.8,40.7,55.5,54.4c8-13.6,40.7-39.1,58.9-52c18.6-13.2,40.5-24.3,61.5-49.2c37.1-43.6,6.3-129.2-56.7-130.7
		C223.3,72.8,186.4,84,183.3,120.7z"/>
	<path class="st5" d="M183.3,120.7c-3-36.6-35.6-47.9-58.6-47.4C64.3,74.7,35.3,152.4,68,199.7c14.6,21.1,42.8,36.7,60.1,51
		c14.7,12.1,47.8,40.7,55.5,54.4c8-13.6,40.7-39.1,58.9-52c18.6-13.2,40.5-24.3,61.5-49.2c37.1-43.6,6.3-129.2-56.7-130.7
		C223.3,72.8,186.4,84,183.3,120.7z"/>
	<g>
		<path class="st6" d="M134.2,148.9v-5.7c1.7-1.5,3.3-2.9,5-4.3c1.7-1.4,3.6-2.8,5.7-4.4s4.3-3.1,6.5-4.6c2.3-1.5,4.8-3,7.7-4.5
			c2.6,3.7,3.8,7.2,3.8,10.6c0,1.8-0.4,3.9-1.1,6.1c-0.8,2.3-1.9,4.8-3.2,7.8c-1.3,2.9-3,6.5-5.1,10.9c-5.4,12-9.5,21.9-12.2,29.7
			c-2.6,7.8-4.1,13.1-4.1,15.9c0,0.2,0.2,1.1,0.5,2.6c0.3,1.6,0.5,2.7,0.5,3.5c0,1.3-0.4,2.1-1.1,2.2c-0.8,0.1-1.8-0.2-3.2-0.9
			c-3.6-1.8-6-3.4-7.1-5c-1.2-1.6-1.8-3.6-1.8-6.1c0-4.4,1.6-11.4,4.9-20.8c1.7-4.7,3.6-9.5,5.8-14.2s4.6-9.5,7.4-14.3
			c2.6-4.8,5.2-9.3,7.7-13.3C145.3,142.4,139.9,145.4,134.2,148.9z"/>
		<path class="st6" d="M173.5,212.1c0-2.2,1.7-5.3,5-9.4c3.4-4.1,9.8-11.2,19.4-21.3c4.6-4.8,9-9.3,13.2-13.2s7.6-7,9.9-9
			c2.4-2,6-5,10.8-9s7.6-6.3,8.4-7.1c3.4-3.1,5.8-5,7.2-5.8s2.1,0,2.1,2.2c0,1.7-0.9,3.6-2.7,5.9c-1.8,2.3-5.5,5.9-10.9,11.1
			c-5.4,5.1-11,10.6-16.6,16.3c-5.7,5.8-11.8,12.5-18.4,20.1c-3.3,3.8-6.4,7.7-9.4,11.5c-2.9,3.9-5.4,7.3-7.5,10.1
			c-2,2.8-3.4,4.7-4.3,5.7c-0.8,0.9-1.5,1.3-2.3,1.3c-0.9,0-1.9-1.1-2.7-3.5S173.5,213.7,173.5,212.1z M209.1,136.4
			c1.4,0.4,2.5,1,3.1,2.1c0.7,0.9,1,2.6,1,4.8c0,3.7-1,7.8-3.2,12.4c-2.1,4.5-4.9,8.4-8.5,11.5s-7.4,4.7-11.3,4.7
			c-3,0-5.6-1.1-7.6-3.5c-2-2.3-2.9-5.4-2.9-9.4s1.1-8,3.5-12.1s5.4-7.4,9.3-10.1c3.8-2.6,7.7-4,11.5-4c1.3,0,2.3,0.3,3,0.9
			C207.7,134.3,208.4,135.2,209.1,136.4z M191.5,163.2c2.9,0,5.7-1.1,8.4-3.5c2.7-2.3,4.9-5,6.5-8.2c1.6-3.1,2.5-5.8,2.5-7.9
			c0-2.6-0.8-3.8-2.2-3.8c-0.2,0-1,0.2-2.6,0.6c-1.6,0.4-2.7,0.3-3.6-0.1c-0.1-0.1-0.2-0.2-0.4-0.3s-0.3-0.1-0.5-0.1
			c-0.6,0-2,0.9-4.2,2.8c-2.2,1.9-4.1,4.3-5.8,7.1c-1.7,2.7-2.6,5.7-2.6,8.6c0,1.5,0.4,2.6,1.2,3.6
			C189.3,162.8,190.3,163.2,191.5,163.2z M237.6,182.7c1.7,0.6,2.7,1.4,3.3,2.4c0.6,0.9,0.8,2.9,0.8,5.7c0,4.3-1.3,8.5-4,12.8
			s-5.7,7.7-9.1,10.4c-3.4,2.6-6.1,4.1-8.2,4.1c-2.1,0-4.3-1.4-6.4-4.2s-3.3-6.1-3.3-10c0-3.2,1-6.7,3.2-10.6
			c2.2-3.8,4.9-7.1,8.4-9.6c3.4-2.6,6.8-4,10.2-4C234.5,179.6,236.2,180.6,237.6,182.7z M216.6,204.2c0,2.6,0.5,4.3,1.5,5.3
			c1,0.9,2.5,1,4.2,0.1c1.8-0.9,3.7-2.6,5.9-5.3c2.3-2.9,4.2-5.9,5.5-8.9s2-5.3,2-6.8c0-2.2-0.8-3.2-2.2-3.2c-1.1,0-3.1,0.9-6,2.6
			c-2.8,1.7-5.4,4-7.6,6.9C217.7,197.7,216.6,200.8,216.6,204.2z"/>
	</g>
</g>
</svg>
