<?xml version="1.0" encoding="utf-8"?>
<!-- Generator: Adobe Illustrator 23.0.1, SVG Export Plug-In . SVG Version: 6.00 Build 0)  -->
<!DOCTYPE svg PUBLIC "-//W3C//DTD SVG 1.1//EN" "http://www.w3.org/Graphics/SVG/1.1/DTD/svg11.dtd" [
	<!ENTITY st0 "fill:#FFFFFF;">
]>
<svg version="1.1" id="Layer_1" xmlns="http://www.w3.org/2000/svg" xmlns:xlink="http://www.w3.org/1999/xlink" x="0px" y="0px"
	 viewBox="0 0 211.8 136.8" style="enable-background:new 0 0 211.8 136.8;" xml:space="preserve">
<g>
	<path style="&st0;" d="M196.9,13.6c-38.8,110-133.2-38.6-183.4,14.6C55.7,18.3,173.1,154.9,196.9,13.6z"/>
	<path style="&st0;" d="M13.4,41.1c29.2-19.1,79.4,49,125.7,41C79.5,108.8,50.2,45.8,13.4,41.1z"/>
	<path style="&st0;" d="M62.3,15.1c38.8-4.2,89.9,73.6,128.7-5.7C141.8,72.7,101.4-19.7,62.3,15.1z"/>
	<path style="&st0;" d="M31.5,29c2.9-0.7,6-1.1,9.3-1.1c16.8,0,36.3,9.8,55.1,19.3c19.2,9.7,39,19.7,56.5,19.7c0,0,0,0,0,0
		c13.1,0,23.9-5.7,32.6-17.2c3.4-7,6.3-15.3,8.5-25.1c-9.8,21.3-23.3,31.7-41.1,31.7c0,0,0,0,0,0c-17.6,0-37.4-10-56.5-19.7
		c-18.8-9.5-38.3-19.3-55.1-19.3c-9.4,0-17.4,3-24.3,9.3c0.5,0,1.1-0.1,1.6-0.1C22.2,26.5,26.7,27.4,31.5,29z"/>
	<path style="&st0;" d="M64.5,63.5c15.5,9.6,32.6,20.2,49.7,24c5.8-0.4,11.6-1.5,17.6-3.6c-0.2,0-0.3,0-0.5,0
		c-20.9,0-42.6-13.5-61.8-25.3C53.1,48.3,37.7,38.7,25.2,38.7c-3.1,0-5.9,0.6-8.5,1.8c4.2,0.9,8.3,2.5,12.4,4.6
		C39.7,48.1,51.8,55.6,64.5,63.5z"/>
	<path style="&st0;" d="M82.2,13.6c10.6,0,21.3,5.8,32.7,11.9c12.2,6.6,24.8,13.3,38.2,13.3c7.3,0,14.3-2.1,21.1-6.4
		c3.9-3.9,7.7-8.8,11.2-14.8c-10.2,10.5-20.8,15.6-32.3,15.6c-13.3,0-26-6.8-38.2-13.3C103.5,13.8,92.7,8.1,82.2,8.1
		c-6,0-11.4,1.9-16.6,5.7c2.8,0,5.6,0.4,8.4,1C76.6,14,79.3,13.6,82.2,13.6z"/>
</g>
<g>
	<g>
		<g>
			<path style="&st0;" d="M20.4,131.5c-4.3,0-7.8-1.2-10.6-3.6c-3-2.5-4.5-5.9-4.5-10.1c0-4.2,1.6-7.6,4.7-10
				c2.9-2.2,6.5-3.3,10.8-3.3c3.9,0,7.5,1,10.6,2.9l-1.9,6.2l-0.6-0.1c-0.8-5.1-3.3-7.6-7.7-7.6c-2.9,0-5.2,1.3-6.7,3.9
				c-1.2,2.1-1.8,4.7-1.8,7.9c0,3.4,0.6,6.2,1.7,8.3c1.5,2.8,3.7,4.1,6.8,4.1c4.4,0,7.1-2.9,8.1-8.8l0.5,0l2.2,6.7
				C28.9,130.4,25,131.5,20.4,131.5z"/>
			<path style="&st0;" d="M52.4,126.7c1.1,2.1,3.1,3.1,6.1,3.1c2.8,0,4.8-0.8,6.1-2.4c1-1.3,1.7-3.2,1.8-5.7c0-0.6,0.1-2.9,0.1-6.8
				c0-2.4-0.2-4.2-0.6-5.4c-0.7-1.9-1.9-3.2-3.7-3.8v-0.5c1.6,0.1,3.3,0.2,5,0.2c1.7,0,3.4,0,5.1-0.2v0.5c-1.8,0.6-3,1.8-3.7,3.7
				c-0.5,1.4-0.7,3.2-0.7,5.6c0,0.4,0,1.1,0,1.9v1.7c0,4.5-0.7,7.7-2.2,9.6c-1.7,2.2-4.8,3.3-9.3,3.3c-4.1,0-7.1-0.7-8.9-2.1
				c-1.5-1.2-2.5-3.2-2.8-5.9c-0.1-0.9-0.2-3.9-0.2-9v-5.8c0-1.6-0.8-2.6-2.4-3.1v-0.6c1.7,0.1,3.5,0.2,5.5,0.2c2,0,4,0,5.9-0.2v0.6
				c-1.6,0.3-2.4,1.3-2.4,3.1v10.8C51.2,122.8,51.6,125.2,52.4,126.7z"/>
			<path style="&st0;" d="M92.5,130.4v0.5c-2.1-0.2-4.1-0.2-6.2-0.2c-2,0-4,0.1-5.9,0.2v-0.5c1.9-0.4,2.8-2.5,2.8-6.3l0-15.2
				c0-1.6-0.8-2.6-2.3-3.1v-0.5c1.2,0,4.7,0.1,10.5,0.1c4.4,0,7.5,0.2,9.3,0.6c3.9,0.9,5.9,2.8,5.9,5.6c0,2.1-1.1,3.7-3.5,4.7
				c-1.8,0.8-3.9,1.3-6.2,1.3c2.8,0,4.9,0.9,6.4,2.8c0.5,0.6,1.5,2.5,2.9,5.7c1,2.3,2.2,3.8,3.7,4.4v0.5c-2.7-0.1-5.9-0.1-9.5-0.1
				c-0.6-1.1-1.3-3-2.1-5.8c-0.7-2.4-1.5-4-2.3-5c-1.3-1.4-3.2-2.1-5.7-2.1l-0.4,0l0,6.1C89.6,127.8,90.5,130,92.5,130.4z
				 M92.7,116.7c1.8,0,3.3-0.4,4.5-1.1c1.4-0.9,2-2.2,2-3.9c0-3.3-2.4-5-7.1-5h-1.5l-1.1,0v9.9C90.7,116.6,91.7,116.7,92.7,116.7z"
				/>
			<path style="&st0;" d="M119.7,130.4c1.9-0.4,2.8-2.5,2.8-6.3l0-15.3c0-1.6-0.8-2.6-2.3-3.1v-0.6c1.7,0.1,3.5,0.2,5.5,0.2
				c2,0,4,0,5.9-0.2v0.6c-1.6,0.3-2.4,1.3-2.4,3.1v14.7c0,2,0.3,3.4,0.8,4.2c0.7,1.1,2,1.7,3.9,1.7c4.6,0,8.6-2.5,12-7.4l0.6,0.2
				l-2.5,8.6l-18.8,0c-1.7,0-3.4,0-5.3,0.2V130.4z"/>
			<path style="&st0;" d="M159.9,124.1v-4.7l-5.8-8.6c-1-1.5-1.8-2.6-2.3-3.1c-1.1-1.4-2.2-2-3-2v-0.4c1.3,0.1,3.2,0.1,5.8,0.1
				c2.1,0,4.2,0,6.1-0.2v0.5c-0.9,0.1-1.3,0.6-1.3,1.5c0,0.8,0.9,2.5,2.8,5.1c1.2,1.6,2.4,3.1,3.6,4.7c1-1.5,2-3.1,3.1-4.6
				c1.4-2.3,2.1-3.9,2.1-4.7c0-1.3-1.1-2-2.4-2v-0.5c1.5,0.1,3,0.2,4.5,0.2c1.5,0,2.9,0,4.2-0.2v0.5c-1.5,0.3-3.5,2.2-6.1,5.7
				c-0.1,0.1-1.8,2.6-5.1,7.5l0,5.4c0,3.7,0.9,5.7,2.8,6.2v0.4c-2.2-0.1-4.3-0.2-6.2-0.2c-2,0-3.9,0-5.6,0.2v-0.4
				C159,130.1,159.9,128,159.9,124.1z"/>
		</g>
		<g>
			<g>
				<path style="&st0;" d="M188.3,122.5v-3.9c0-0.9-0.3-1.1-0.8-1.1c-0.5,0-0.8,0.2-0.8,1.1v3.9h-2.4v-8.6l2.4-0.9v3.1
					c0.4-0.3,0.9-0.6,1.7-0.6c1.5,0,2.2,1,2.2,2.8v4.2H188.3z"/>
				<path style="&st0;" d="M196,122.5V122c-0.4,0.3-0.9,0.6-1.7,0.6c-1.5,0-2.2-1-2.2-2.8v-4.2h2.4v3.9c0,0.9,0.3,1.1,0.8,1.1
					c0.5,0,0.8-0.2,0.8-1.1v-3.9h2.4v6.9H196z"/>
			</g>
			<g>
				<path style="&st0;" d="M191.4,131.4c-7.5,0-13.6-6.1-13.6-13.6c0-7.5,6.1-13.6,13.6-13.6c7.5,0,13.6,6.1,13.6,13.6
					C205,125.3,198.9,131.4,191.4,131.4z M191.4,105.8c-6.6,0-12,5.4-12,12s5.4,12,12,12s12-5.4,12-12S198,105.8,191.4,105.8z"/>
			</g>
		</g>
	</g>
</g>
</svg>
