<?xml version="1.0" encoding="utf-8"?>
<!-- Generator: Adobe Illustrator 23.0.1, SVG Export Plug-In . SVG Version: 6.00 Build 0)  -->
<!DOCTYPE svg PUBLIC "-//W3C//DTD SVG 1.1//EN" "http://www.w3.org/Graphics/SVG/1.1/DTD/svg11.dtd">
<svg version="1.1" id="Layer_1" xmlns="http://www.w3.org/2000/svg" xmlns:xlink="http://www.w3.org/1999/xlink" x="0px" y="0px"
	 viewBox="0 0 277.6 212.7" style="enable-background:new 0 0 277.6 212.7;" xml:space="preserve">
<g>
	<g>
		<path d="M5.8,37.2C67.2,23,237.3,220.9,271.7,16.1C215.6,175.5,78.7-39.9,5.8,37.2z"/>
		<path d="M5.8,55.9c53.4,6.9,95.8,98.2,182.2,59.4C120.9,127,48.1,28.2,5.8,55.9z"/>
		<path d="M263.2,10c-71.3,91.9-129.9-42.1-186.5,8.3C133,12.2,207,124.9,263.2,10z"/>
	</g>
	<g>
		<path d="M23,203.5c-4-1.8-7.3-4.6-10-8.4c-2.7-3.8-4-8.6-4-14.3c0-4.3,1-8.5,3-12.7c2-4.2,4.9-7.6,8.6-10.2c3.7-2.6,8-4,12.8-4
			c1.3,0,2.6,0.2,3.9,0.5c1.3,0.3,2.7,0.8,4.2,1.3c0.4,0.1,1,0.3,1.8,0.5c0.9,0.3,1.5,0.4,2,0.4c0.7,0,1.3-0.2,1.9-0.5
			c0.6-0.3,1.3-0.8,1.9-1.4l2.7,11.5L52,167c0,0.2-0.2,0.4-0.5,0.6c-0.1,0-0.2,0.1-0.3,0.1c-0.2,0-0.5-0.1-0.7-0.4
			c-1.5-2.1-2.9-3.9-4.3-5.4c-1.4-1.5-3.1-2.8-5.1-3.9c-2-1.1-4.4-1.6-7-1.6c-3.9,0-6.9,1.6-9,4.7c-2.1,3.2-3.5,6.6-4.2,10.2
			c-0.7,3.7-1,6.7-1,9.2c0,4.8,0.8,8.9,2.3,12.3c1.5,3.4,3.5,5.9,6,7.6c2.5,1.7,5.1,2.6,7.8,2.6c3.9,0,7.1-1,9.5-2.9
			c2.4-2,4.6-4.5,6.6-7.8c0.2-0.2,0.4-0.3,0.6-0.3c0.1,0,0.2,0.1,0.5,0.2c0.3,0.2,0.4,0.4,0.4,0.7l-0.1,0.4c-1.6,3.3-4,6.2-7,8.9
			c-3,2.7-6.9,4-11.5,4C31,206.1,27,205.2,23,203.5z"/>
		<path d="M71,201.9c-3.2-2.8-4.8-7.1-4.8-12.8v-26.9c0-2.3-0.5-3.9-1.6-4.7c-1.1-0.8-2.5-1.2-4.1-1.2h-0.8c-0.3,0-0.5-0.3-0.5-0.8
			c0-0.5,0.2-0.8,0.5-0.8h23c0.3,0,0.5,0.3,0.5,0.8c0,0.5-0.2,0.8-0.5,0.8h-0.8c-1.6,0-3,0.4-4.1,1.2c-1.1,0.8-1.6,2.4-1.6,4.7v24.3
			c0,3.1,0.2,5.8,0.7,8.2c0.5,2.4,1.6,4.4,3.3,6.2c1.8,1.8,4.4,2.6,8,2.6c8.7,0,13.1-6.3,13.1-18.9v-21.9c0-2.1-0.6-3.7-1.8-4.8
			c-1.2-1.1-2.5-1.6-4-1.6h-0.6c-0.3,0-0.5-0.2-0.5-0.8s0.2-0.8,0.5-0.8h15.7c0.3,0,0.5,0.3,0.5,0.8s-0.2,0.8-0.5,0.8h-0.6
			c-1.5,0-2.9,0.5-4.1,1.6c-1.2,1.1-1.8,2.7-1.8,4.8l-0.1,23.9c0,6.3-1.5,11.2-4.4,14.5c-2.9,3.4-7,5.1-12.3,5.1
			C79.6,206.1,74.2,204.7,71,201.9z"/>
		<path d="M167.4,204.4c0,0.5-0.2,0.8-0.5,0.8h-16.5c-1.9-3.8-4.2-8.1-6.8-12.9c-2.6-4.8-4.9-8.6-6.9-11.3h-4v16.8
			c0,4,1.9,5.9,5.7,5.9h0.8c0.3,0,0.5,0.2,0.5,0.7c0,0.5-0.2,0.8-0.5,0.8h-22.8c-0.3,0-0.5-0.3-0.5-0.8c0-0.5,0.2-0.7,0.5-0.7h0.8
			c3.8,0,5.7-2,5.7-5.9v-35.6c0-3.9-1.9-5.9-5.7-5.9h-0.8c-0.3,0-0.5-0.3-0.5-0.8c0-0.5,0.2-0.8,0.5-0.8c6.1-0.1,11.8-0.2,17.1-0.2
			c2.5,0,5.4,0,8.8,0.1c3,0.1,5.9,0.7,8.7,1.7c2.7,1,4.9,2.5,6.6,4.5c1.7,1.9,2.5,4.2,2.5,6.8c0,3.2-1.3,5.8-3.8,7.7
			c-2.5,2-5.7,3.4-9.5,4.4c1,1.4,3,4.5,5.9,9.3c3,5.1,5.2,8.6,6.6,10.5c0.2,0.2,0.6,0.8,1.2,1.7c0.6,0.9,1.4,1.6,2.4,1.9
			c1,0.3,2.3,0.5,3.9,0.5C167.3,203.7,167.4,204,167.4,204.4z M132.8,179.1h2.1c6,0,9.9-1.2,11.8-3.5s2.8-5.1,2.8-8.3
			c0-1.8-0.4-3.5-1.3-5.2c-0.8-1.6-2.1-2.9-3.7-3.9c-1.6-1-3.6-1.5-5.9-1.5c-1.9,0-3.3,0.3-4.3,1c-1,0.7-1.4,1.8-1.4,3.3V179.1z"/>
		<path d="M171.5,205.2c-0.2,0-0.3-0.1-0.4-0.2c-0.1-0.1-0.1-0.3-0.1-0.6c0-0.5,0.2-0.8,0.5-0.8h0.8c1.6,0,2.9-0.4,4-1.2
			c1.1-0.8,1.6-2.4,1.6-4.7v-35.7c0-3.9-1.9-5.9-5.7-5.9h-0.8c-0.2,0-0.3-0.1-0.4-0.2s-0.1-0.3-0.1-0.6c0-0.5,0.2-0.7,0.5-0.7h23.1
			c0.3,0,0.5,0.3,0.5,0.8s-0.2,0.8-0.5,0.8h-0.8c-3.8,0-5.7,2-5.7,5.9v36.8c0,1.6,0.5,2.7,1.5,3.3s2.5,0.9,4.6,1l1.5,0.1l1.8-0.1
			c4-0.2,7.4-1.4,10.3-3.8c2.9-2.3,5.4-5.1,7.6-8.2c0.1-0.2,0.3-0.3,0.5-0.3c0.1,0,0.3,0,0.5,0.1c0.3,0.1,0.5,0.3,0.5,0.5l-0.1,0.3
			l-1.9,5.1c-1.7,4.6-2.7,7.3-3,8.1H171.5z"/>
		<path d="M234.1,205.2c-0.3,0-0.5-0.3-0.5-0.8c0-0.5,0.2-0.8,0.5-0.8h0.8c3.7,0,5.6-2,5.7-5.9v-9.3c-7.5-16-11.6-24.8-12.5-26.3
			c-1.3-2.4-2.4-3.9-3.3-4.7c-0.9-0.8-1.9-1.2-2.9-1.2H221c-0.3,0-0.5-0.3-0.5-0.8c0-0.5,0.2-0.8,0.5-0.8h21.9
			c0.3,0,0.5,0.3,0.5,0.8c0,0.5-0.2,0.8-0.5,0.8H242c-1.2,0-2.2,0.3-3,0.8c-0.8,0.5-1.2,1.4-1.2,2.6c0,0.6,0.2,1.5,0.5,2.5
			c0.4,1,3.8,8.6,10.2,22.8c6-12.9,9.4-20.2,10.2-21.9c0.4-1,0.6-1.8,0.6-2.5c0-1.3-0.5-2.4-1.6-3.1c-1.1-0.8-2.3-1.1-3.5-1.1h-0.7
			c-0.3,0-0.5-0.3-0.5-0.8c0-0.5,0.2-0.8,0.5-0.8h17.6c0.4,0,0.5,0.3,0.5,0.8c0,0.5-0.2,0.8-0.5,0.8h-0.6c-1.3,0-2.8,0.6-4.3,1.7
			c-1.5,1.1-3,2.8-4.4,5c-1,1.5-4.7,9.3-11.3,23.2l-0.1,11.6c0,3.9,1.9,5.9,5.7,5.9h0.8c0.4,0,0.5,0.3,0.5,0.8
			c0,0.5-0.2,0.8-0.5,0.8H234.1z"/>
	</g>
</g>
</svg>
