<?xml version="1.0" encoding="utf-8"?>
<!-- Generator: Adobe Illustrator 23.0.1, SVG Export Plug-In . SVG Version: 6.00 Build 0)  -->
<!DOCTYPE svg PUBLIC "-//W3C//DTD SVG 1.1//EN" "http://www.w3.org/Graphics/SVG/1.1/DTD/svg11.dtd" [
	<!ENTITY st0 "fill:#6C4796;">
	<!ENTITY st1 "fill:url(#SVGID_1_);">
	<!ENTITY st2 "fill:url(#SVGID_2_);">
	<!ENTITY st3 "fill:url(#SVGID_3_);">
	<!ENTITY st4 "fill:#38B6AB;">
	<!ENTITY st5 "fill:#009E9C;">
	<!ENTITY st6 "fill:#5E4F9C;">
]>
<svg version="1.1" id="Layer_1" xmlns="http://www.w3.org/2000/svg" xmlns:xlink="http://www.w3.org/1999/xlink" x="0px" y="0px"
	 viewBox="0 0 650 126.4" style="enable-background:new 0 0 650 126.4;" xml:space="preserve">
<g>
	<g>
		<path style="&st0;" d="M272.4,14.1c-56.2,159.5-193-56-265.9,21.1C67.8,21,238,219,272.4,14.1z"/>
		<path style="&st0;" d="M6.5,54c42.3-27.7,115.1,71.1,182.2,59.4C102.3,152.2,59.8,60.9,6.5,54z"/>
		<path style="&st0;" d="M77.4,16.3c56.2-6.1,130.3,106.7,186.5-8.3C192.6,99.9,134-34,77.4,16.3z"/>
		<linearGradient id="SVGID_1_" gradientUnits="userSpaceOnUse" x1="11.0201" y1="55.551" x2="267.5855" y2="55.551">
			<stop  offset="0" style="stop-color:#FFFFFF;stop-opacity:0"/>
			<stop  offset="1" style="stop-color:#FFFFFF;stop-opacity:0.5"/>
		</linearGradient>
		<path style="&st1;" d="M32.7,36.6c4.3-1.1,8.7-1.6,13.5-1.6c24.4,0,52.6,14.3,79.9,28c27.8,14,56.5,28.5,81.9,28.5c0,0,0,0,0,0
			c19,0,34.6-8.2,47.2-24.9c5-10.1,9.1-22.2,12.3-36.4c-14.3,30.8-33.8,45.9-59.5,45.9c0,0,0,0,0,0c-25.4,0-54.2-14.5-81.9-28.5
			c-27.3-13.8-55.5-28-79.9-28C32.5,19.6,20.9,24,11,33c0.8,0,1.6-0.1,2.4-0.1C19.2,32.9,25.7,34.3,32.7,36.6z"/>
		<linearGradient id="SVGID_2_" gradientUnits="userSpaceOnUse" x1="11.1802" y1="85.928" x2="177.9947" y2="85.928">
			<stop  offset="0" style="stop-color:#FFFFFF;stop-opacity:0"/>
			<stop  offset="1" style="stop-color:#FFFFFF;stop-opacity:0.5"/>
		</linearGradient>
		<path style="&st2;" d="M80.5,86.5c22.4,13.9,47.3,29.3,72,34.7c8.4-0.5,16.8-2.2,25.5-5.3c-0.2,0-0.5,0-0.7,0
			c-30.3,0-61.8-19.5-89.5-36.7c-23.7-14.7-46-28.6-64.2-28.6c-4.5,0-8.6,0.8-12.4,2.5c6.1,1.3,12.1,3.7,18,6.7
			C44.6,64.2,62.1,75.1,80.5,86.5z"/>
		<linearGradient id="SVGID_3_" gradientUnits="userSpaceOnUse" x1="82.0934" y1="28.4378" x2="255.6109" y2="28.4378">
			<stop  offset="0" style="stop-color:#FFFFFF;stop-opacity:0"/>
			<stop  offset="1" style="stop-color:#FFFFFF;stop-opacity:0.5"/>
		</linearGradient>
		<path style="&st3;" d="M106.1,14.1c15.3,0,30.9,8.4,47.4,17.2c17.7,9.5,36,19.3,55.3,19.3c10.6,0,20.8-3.1,30.5-9.2
			c5.7-5.7,11.1-12.8,16.2-21.4c-14.7,15.2-30.1,22.7-46.8,22.7c-19.3,0-37.6-9.8-55.3-19.3C137,14.6,121.4,6.2,106.1,6.2
			c-8.6,0-16.5,2.7-24,8.3c4,0,8.1,0.6,12.2,1.5C98.1,14.8,102,14.1,106.1,14.1z"/>
	</g>
	<g>
		<g>
			<g>
				<path style="&st4;" d="M322,70c-7.4,0-13.6-2-18.4-6.2c-5.2-4.4-7.8-10.2-7.8-17.5c0-7.4,2.7-13.2,8.1-17.4
					c5-3.8,11.2-5.7,18.8-5.7c6.8,0,13,1.7,18.4,5L337.9,39l-1-0.1c-1.4-8.8-5.8-13.2-13.3-13.2c-5.1,0-9,2.2-11.6,6.7
					c-2.1,3.6-3.1,8.2-3.1,13.7c0,5.9,1,10.7,3,14.5c2.5,4.8,6.5,7.2,11.9,7.2c7.6,0,12.3-5.1,14-15.3l1-0.1l3.7,11.7
					C336.9,67.9,330,70,322,70z"/>
				<path style="&st4;" d="M377.5,61.6c1.9,3.6,5.5,5.4,10.6,5.4c4.8,0,8.4-1.4,10.6-4.2c1.8-2.2,2.9-5.5,3.2-9.9
					c0.1-1,0.1-5,0.1-11.7c0-4.1-0.3-7.2-1.1-9.4c-1.2-3.3-3.3-5.5-6.3-6.5v-0.9c2.8,0.2,5.7,0.3,8.6,0.3c2.9,0,5.9-0.1,8.9-0.3v0.8
					c-3.1,1-5.2,3.1-6.3,6.4c-0.8,2.4-1.2,5.6-1.2,9.7c0,0.8,0,1.8,0.1,3.3v3c0,7.8-1.3,13.4-3.9,16.7c-3,3.8-8.4,5.7-16.2,5.7
					c-7.2,0-12.3-1.2-15.4-3.7c-2.7-2.1-4.3-5.5-4.8-10.2c-0.2-1.6-0.3-6.7-0.3-15.5v-10c0-2.8-1.4-4.6-4.1-5.3v-1
					c3,0.2,6.1,0.3,9.5,0.3c3.5,0,6.9-0.1,10.2-0.3v1c-2.7,0.5-4.1,2.2-4.1,5.3v18.7C375.5,54.8,376.2,59,377.5,61.6z"/>
				<path style="&st4;" d="M447.1,68v0.9c-3.6-0.3-7.2-0.4-10.8-0.4c-3.5,0-7,0.1-10.3,0.4V68c3.3-0.8,4.9-4.4,4.9-11l-0.1-26.4
					c0-2.8-1.4-4.6-4-5.3v-1c2.1,0.1,8.2,0.1,18.1,0.1c7.6,0,13,0.3,16.1,1c6.8,1.5,10.2,4.8,10.2,9.7c0,3.6-2,6.3-6,8.2
					c-3.1,1.4-6.7,2.2-10.8,2.2c4.8,0,8.5,1.6,11,4.9c0.9,1.1,2.5,4.4,5,9.8c1.8,4,3.9,6.5,6.4,7.6v0.9c-4.7-0.1-10.2-0.2-16.5-0.1
					c-1-1.8-2.3-5.2-3.6-10c-1.2-4.2-2.5-7-4-8.7c-2.2-2.5-5.5-3.7-10-3.7l-0.8,0.1l-0.1,10.5C442.1,63.5,443.8,67.3,447.1,68z
					 M447.4,44.1c3.2,0,5.8-0.7,7.8-2c2.4-1.6,3.5-3.8,3.5-6.8c0-5.7-4.1-8.6-12.3-8.6H444l-1.8,0.1V44
					C444,44.1,445.7,44.1,447.4,44.1z"/>
				<path style="&st4;" d="M494.4,68c3.3-0.8,4.9-4.4,4.9-11l-0.1-26.5c0-2.8-1.4-4.6-4-5.3v-1c3,0.2,6.1,0.3,9.5,0.3
					c3.5,0,6.9-0.1,10.2-0.3v1c-2.7,0.5-4.1,2.2-4.1,5.3v25.6c0,3.5,0.5,5.9,1.4,7.4c1.2,1.9,3.4,2.9,6.7,2.9
					c7.9,0,14.9-4.3,20.8-12.8l1,0.3l-4.4,14.9l-32.7-0.1c-2.9,0-5.9,0.1-9.1,0.3V68z"/>
				<path style="&st4;" d="M564,57v-8.1L554,34c-1.7-2.6-3.1-4.4-4-5.5c-2-2.4-3.7-3.5-5.2-3.5v-0.8c2.3,0.1,5.6,0.2,10,0.2
					c3.7,0,7.2-0.1,10.6-0.3V25c-1.6,0.2-2.3,1.1-2.3,2.5c0,1.4,1.6,4.3,4.9,8.9c2.1,2.7,4.2,5.5,6.2,8.2c1.8-2.7,3.5-5.4,5.3-8
					c2.5-4,3.7-6.7,3.7-8.1c0-2.2-1.9-3.4-4.2-3.4v-0.8c2.7,0.2,5.2,0.3,7.8,0.3c2.5,0,5-0.1,7.4-0.3V25c-2.5,0.5-6,3.8-10.5,10
					c-0.1,0.1-3.1,4.4-8.8,13l-0.1,9.3c0,6.3,1.6,10,4.8,10.8v0.8c-3.8-0.2-7.4-0.3-10.8-0.3c-3.4,0-6.7,0.1-9.7,0.3v-0.7
					C562.5,67.5,564.1,63.8,564,57z"/>
			</g>
			<g>
				<g>
					<path style="&st5;" d="M613.4,54.2v-6.8c0-1.5-0.5-2-1.4-2c-0.9,0-1.4,0.4-1.4,1.9v6.8h-4.1V39.3l4.1-1.6v5.4
						c0.7-0.6,1.6-1,3-1c2.6,0,3.9,1.7,3.9,4.9v7.3H613.4z"/>
					<path style="&st5;" d="M626.7,54.2v-0.8c-0.7,0.6-1.6,1-3,1c-2.6,0-3.9-1.7-3.9-4.9v-7.3h4.1v6.8c0,1.5,0.5,2,1.4,2
						c0.8,0,1.4-0.4,1.4-1.9v-6.8h4.1v11.9H626.7z"/>
				</g>
				<g>
					<path style="&st6;" d="M618.7,69.7c-13,0-23.6-10.6-23.6-23.6s10.6-23.6,23.6-23.6c13,0,23.6,10.6,23.6,23.6
						S631.7,69.7,618.7,69.7z M618.7,25.3c-11.5,0-20.8,9.3-20.8,20.8c0,11.5,9.3,20.8,20.8,20.8c11.5,0,20.8-9.3,20.8-20.8
						C639.5,34.6,630.1,25.3,618.7,25.3z"/>
				</g>
			</g>
		</g>
		<g>
			<path style="&st5;" d="M298.6,94.4v10.5H296V81.6h2.6v10.5h5.7V81.6h2.6v23.3h-2.6V94.4H298.6z"/>
			<path style="&st5;" d="M314.2,100.2l-0.9,4.7H311l4.5-23.3h3.8l4.5,23.3H321l-0.9-4.7H314.2z M314.6,98h5.2l-2.6-13.4L314.6,98z"
				/>
			<path style="&st5;" d="M327.1,102.5c0.4,0,0.9,0,1.3,0c1.7-0.1,2.7-0.9,2.7-3.3V81.6h2.6v17.5c0,4.4-2.2,5.7-4.9,5.8
				c-0.6,0-1.1,0-1.6,0V102.5z"/>
			<path style="&st5;" d="M340.9,100.2l-0.9,4.7h-2.4l4.5-23.3h3.8l4.5,23.3h-2.6l-0.9-4.7H340.9z M341.3,98h5.2l-2.6-13.4L341.3,98
				z"/>
			<path style="&st5;" d="M359.9,81.6c3.6,0,5.3,2.2,5.3,5.8v11.7c0,3.6-1.7,5.7-5.3,5.7h-5.4V81.6H359.9z M359.8,102.5
				c1.9,0,2.8-1.2,2.8-3.3v-12c0-2.1-0.9-3.3-2.8-3.3H357v18.5H359.8z"/>
			<path style="&st5;" d="M369.5,87.3c0-3.6,1.8-5.8,5.3-5.8c3.6,0,5.3,2.3,5.3,5.8v12c0,3.5-1.8,5.8-5.3,5.8
				c-3.6,0-5.3-2.3-5.3-5.8V87.3z M372,99.4c0,2.1,0.9,3.4,2.8,3.4c1.9,0,2.8-1.2,2.8-3.4V87.1c0-2.1-0.9-3.4-2.8-3.4
				c-1.9,0-2.8,1.3-2.8,3.4V99.4z"/>
			<path style="&st5;" d="M393.2,104.9h-2.5l-3.9-18.5v18.5h-2.3V81.6h3.6l3.8,18.6l3.7-18.6h3.6v23.3h-2.5V86.2L393.2,104.9z"/>
			<path style="&st5;" d="M406.8,100.2l-0.9,4.7h-2.4l4.5-23.3h3.8l4.5,23.3h-2.6l-0.9-4.7H406.8z M407.1,98h5.2l-2.6-13.4L407.1,98
				z M412.9,77l-3.1,3.4h-1.8l2.3-3.4H412.9z"/>
			<path style="&st5;" d="M422.5,104.9h-2.3V81.6h3.3l5.4,16.8V81.6h2.3v23.3h-2.7l-5.9-18.8V104.9z"/>
			<path style="&st5;" d="M440,96.6l-4.9-14.9h2.7l3.6,11.4l3.7-11.4h2.5l-5,14.9v8.3H440V96.6z"/>
			<path style="&st5;" d="M449.6,87.3c0-3.6,1.8-5.8,5.3-5.8c3.6,0,5.3,2.3,5.3,5.8v12c0,3.5-1.8,5.8-5.3,5.8
				c-3.6,0-5.3-2.3-5.3-5.8V87.3z M452.2,99.4c0,2.1,0.9,3.4,2.8,3.4c1.9,0,2.8-1.2,2.8-3.4V87.1c0-2.1-0.9-3.4-2.8-3.4
				c-1.9,0-2.8,1.3-2.8,3.4V99.4z"/>
			<path style="&st5;" d="M473.8,104.9h-10.6v-2.3l8-18.6h-7.6v-2.4h10.3V84l-8,18.6h7.9V104.9z"/>
			<path style="&st5;" d="M488.8,87.3v12c0,3.5-1.8,5.8-5.3,5.8c-3.6,0-5.3-2.3-5.3-5.8v-12c0-3.6,1.8-5.8,5.3-5.8
				C487,81.4,488.8,83.7,488.8,87.3z M480.7,87.1v12.3c0,2.1,0.9,3.4,2.8,3.4c1.9,0,2.8-1.2,2.8-3.4V87.1c0-2.1-0.9-3.4-2.8-3.4
				C481.6,83.8,480.7,85,480.7,87.1z M486.7,76.8l-3.1,3.4h-1.8l2.3-3.4H486.7z"/>
			<path style="&st5;" d="M505.6,100.2l-0.9,4.7h-2.4l4.5-23.3h3.8l4.5,23.3h-2.6l-0.9-4.7H505.6z M505.9,98h5.2l-2.6-13.4L505.9,98
				z"/>
			<path style="&st5;" d="M519.1,104.9V81.6h2.6v20.9h6.6v2.4H519.1z"/>
			<path style="&st5;" d="M535,100.2l-0.9,4.7h-2.4l4.5-23.3h3.8l4.5,23.3h-2.6l-0.9-4.7H535z M535.3,98h5.2l-2.6-13.4L535.3,98z"/>
			<path style="&st5;" d="M553.6,81.6c3.7,0,5.2,2.2,5.2,5.7v2.8c0,3.7-1.7,5.6-5.4,5.6h-2.3v9.2h-2.6V81.6H553.6z M553.4,93.4
				c1.9,0,2.9-0.9,2.9-3.1v-3.1c0-2.1-0.8-3.2-2.7-3.2h-2.5v9.4H553.4z"/>
			<path style="&st5;" d="M564.9,76.9h2.6l-3.1,3.4h-1.8L564.9,76.9z M562.9,81.6h2.6v23.3h-2.6V81.6z"/>
			<path style="&st5;" d="M573.6,104.9V84h-4.3v-2.4h11.1V84h-4.3v20.9H573.6z"/>
			<path style="&st5;" d="M586.2,81.6l3.8,20.2l3.8-20.2h2.4l-4.4,23.3H588l-4.4-23.3H586.2z"/>
			<path style="&st5;" d="M602.1,100.2l-0.9,4.7h-2.4l4.5-23.3h3.8l4.5,23.3h-2.6l-0.9-4.7H602.1z M602.4,98h5.2l-2.6-13.4L602.4,98
				z M608.2,77l-3.1,3.4h-1.8l2.3-3.4H608.2z"/>
			<path style="&st5;" d="M617.8,104.9h-2.3V81.6h3.3l5.4,16.8V81.6h2.3v23.3h-2.7l-5.9-18.8V104.9z"/>
			<path style="&st5;" d="M635.3,96.6l-4.9-14.9h2.7l3.6,11.4l3.7-11.4h2.5l-5,14.9v8.3h-2.6V96.6z"/>
		</g>
	</g>
</g>
</svg>
