<?xml version="1.0" encoding="utf-8"?>
<!-- Generator: Adobe Illustrator 23.0.1, SVG Export Plug-In . SVG Version: 6.00 Build 0)  -->
<!DOCTYPE svg PUBLIC "-//W3C//DTD SVG 1.1//EN" "http://www.w3.org/Graphics/SVG/1.1/DTD/svg11.dtd" [
	<!ENTITY st0 "fill:none;stroke:#64519C;stroke-width:3;stroke-linecap:round;stroke-linejoin:round;stroke-miterlimit:10;">
]>
<svg version="1.1" id="Layer_1" xmlns="http://www.w3.org/2000/svg" xmlns:xlink="http://www.w3.org/1999/xlink" x="0px" y="0px"
	 viewBox="0 0 41 32" style="enable-background:new 0 0 41 32;" xml:space="preserve">
<g>
	<path style="&st0;" d="M4.3,9.3c0,0,2.4-2.1,9.1-2.1c5,0,10.3,4.5,14.4,4.5c4.5,0,8.9-2.4,8.9-2.4"/>
	<path style="&st0;" d="M4.3,15.8c0,0,2.4-2.1,9.1-2.1c5,0,10.3,4.5,14.4,4.5c4.5,0,8.9-2.4,8.9-2.4"/>
	<path style="&st0;" d="M4.3,22.3c0,0,2.4-2.1,9.1-2.1c5,0,10.3,4.5,14.4,4.5c4.5,0,8.9-2.4,8.9-2.4"/>
</g>
</svg>
