<?xml version="1.0" encoding="utf-8"?>
<!-- Generator: Adobe Illustrator 23.0.1, SVG Export Plug-In . SVG Version: 6.00 Build 0)  -->
<!DOCTYPE svg PUBLIC "-//W3C//DTD SVG 1.1//EN" "http://www.w3.org/Graphics/SVG/1.1/DTD/svg11.dtd" [
	<!ENTITY st0 "fill:#1D1D1B;">
]>
<svg version="1.1" id="Layer_1" xmlns="http://www.w3.org/2000/svg" xmlns:xlink="http://www.w3.org/1999/xlink" x="0px" y="0px"
	 viewBox="0 0 74.3 85.7" style="enable-background:new 0 0 74.3 85.7;" xml:space="preserve">
<g>
	<path style="&st0;" d="M62.3,29.5c-0.8-2.3-3.2-3.8-5.9-3.8c-0.8,0-1.5,0.1-2.2,0.4c-0.7,0.2-1.4,0.7-2.2,1.3
		c-1.1-2.5-3.6-4.1-6.4-4.1c-0.8,0-1.6,0.1-2.4,0.4c-1.6,0.6-2.8,1.7-3.6,3c-1.3-1.5-3.3-2.5-5.4-2.5c-0.8,0-1.6,0.1-2.4,0.4
		c-1.6,0.6-3.2,1.7-4.2,3.2l-6.2-17c-1.2-3.3-3.6-5.2-6.4-5.2c-0.7,0-1.5,0.1-2.3,0.4C9.1,7.4,7.5,11.3,9,15.4l14.5,39.7l-7.5-3.7
		c-1.1-0.5-2.3-0.8-3.5-0.8c-3.1,0-6,1.9-7.4,4.7c-0.9,2-1,4.2-0.3,6.3c0.7,2.1,2.3,3.7,4.2,4.6c0.1,0,7,3.7,16.5,8.2l1.5,0.7
		c6.1,2.9,11.9,5.6,18.6,5.6h0c3.2,0,6.4-0.6,9.8-1.8C67.4,74.5,69.2,67.1,70,59.9C70.8,53,62.7,30.5,62.3,29.5z M67,59.6
		c-0.8,6.8-2.3,12.7-12.5,16.5c-3,1.1-5.9,1.6-8.7,1.6h0c-6,0-11.3-2.5-17.3-5.3l-1.6-0.7c-9.5-4.4-16.3-8.1-16.4-8.1
		c-1.3-0.6-2.2-1.6-2.7-2.9c-0.5-1.3-0.4-2.7,0.2-4c0.9-1.8,2.6-3,4.7-3c0.8,0,1.5,0.2,2.2,0.5l10.8,5.4c0.5,0.3,1.2,0.2,1.7-0.2
		c0.5-0.4,0.6-1.1,0.4-1.6L11.8,14.4c-0.7-2-0.6-4.6,2-5.5c0.4-0.2,0.9-0.2,1.2-0.2c1.5,0,2.9,1.2,3.6,3.3l9.6,26.3
		c0.3,0.8,1.1,1.2,1.9,0.9c0.8-0.3,1.2-1.1,0.9-1.9l-1.4-3.8c-1.1-3.1,1.3-5.3,3.2-5.9c0.4-0.2,0.9-0.2,1.4-0.2
		c1.7,0,3.2,1.1,3.8,2.6l1.9,5.1l0,0c0.3,0.8,1.1,1.2,1.9,0.9c0.8-0.3,1.2-1.1,0.9-1.9l-0.9-2.4c-0.7-2.1,0.4-4.3,2.4-5.1
		c0.4-0.2,0.9-0.2,1.4-0.2c1.7,0,3.2,1.1,3.8,2.6l2.2,6l0,0.1c0.3,0.8,1.1,1.2,1.9,0.9c0.8-0.3,1.2-1.1,0.9-1.9l-1.3-3.6
		c0.5-0.5,1.4-1.2,2.1-1.5c0.4-0.1,0.8-0.2,1.2-0.2c1.4,0,2.7,0.8,3.1,1.8C61.8,36.9,67.6,54.4,67,59.6z"/>
</g>
</svg>
