<?xml version="1.0" encoding="utf-8"?>
<!-- Generator: Adobe Illustrator 23.0.1, SVG Export Plug-In . SVG Version: 6.00 Build 0)  -->
<svg version="1.1" id="Layer_1" xmlns="http://www.w3.org/2000/svg" xmlns:xlink="http://www.w3.org/1999/xlink" x="0px" y="0px"
	 viewBox="0 0 198.4 198.4" style="enable-background:new 0 0 198.4 198.4;" xml:space="preserve">
<style type="text/css">
	.st0{fill:#2CAEA4;}
	.st1{fill:#24897F;}
	.st2{fill:#56453F;}
	.st3{fill:#92D6B5;}
	.st4{clip-path:url(#SVGID_2_);}
	.st5{fill:#9C5E21;}
	.st6{fill:#EA4411;}
</style>
<title>2 - szakszerű vágás</title>
<g>
	<circle class="st0" cx="99.2" cy="98.3" r="96.5"/>
	<path class="st1" d="M182.1,51.5c-3.1-2.9-7.3,1.4-4.6,4.6c5.4,6.3,6,16,6.6,24s0.1,16-1.4,23.8c-3.1,15.5-9.9,30.1-20,42.3
		c-20.1,24-53.4,35.6-84.1,29.5c-10.8-2.2-15.4,14.5-4.6,16.5c38.2,7.4,78.4-6.8,102.1-38c11.6-15.3,17.6-33.3,19.2-52.3
		C196.8,85.4,194.9,63.4,182.1,51.5z"/>
	<path class="st2" d="M99.2,3.6c52.3,0,94.7,42.4,94.7,94.7S151.5,193,99.2,193S4.5,150.6,4.5,98.3l0,0C4.6,46,46.9,3.6,99.2,3.6
		 M99.2,0C45,0,1,44,0.9,98.3c0,54.3,44,98.3,98.3,98.3s98.3-44,98.3-98.3l0,0C197.5,44,153.5,0,99.2,0z"/>
	<path class="st3" d="M99.2,3.6c52.3,0,94.7,42.4,94.7,94.7S151.5,193,99.2,193S4.5,150.6,4.5,98.3l0,0C4.6,46,46.9,3.6,99.2,3.6
		 M99.2,0C45,0,1,44,0.9,98.3c0,54.3,44,98.3,98.3,98.3s98.3-44,98.3-98.3l0,0C197.5,44,153.5,0,99.2,0z"/>
	<g>
		<g>
			<defs>
				<path id="SVGID_1_" d="M99.2,3.6C46.9,3.6,4.5,46,4.5,98.3S46.9,193,99.2,193s94.7-42.4,94.7-94.7l0,0
					C193.9,46,151.5,3.6,99.2,3.6z"/>
			</defs>
			<clipPath id="SVGID_2_">
				<use xlink:href="#SVGID_1_"  style="overflow:visible;"/>
			</clipPath>
			<g class="st4">
				<path class="st5" d="M79.5,85.2c-1.2,7.5-1.4,15.1-0.5,22.6c0.4,1.1,0.8,2.1,1.2,3.2c5,12.3,12.1,25.6,12.2,39.2
					c1.4,3.7,2.3,7.5,2.8,11.5c0.6,4.6,0.2,9.3-1.3,13.7c-0.9,2.8-2.2,7.2-4.9,8.7c-0.2,0.1-1.4,1.1-0.5,0.8
					c14.6-3.3,23.3-18,22.7-32.2c-0.8-18.4-12-34.1-14.2-52.3c-2-17.4,1-35,8.6-50.8c3-6.5,6.8-12.6,11.3-18.1
					c3.6-4.1,7.8-7.7,12.5-10.4l-0.5-0.6C104.5,34,84,57.5,79.5,85.2z"/>
				<path class="st5" d="M121,104.9c-6.2-15.5-8.9-33.3-4.7-49.8c2.8-11.3,8.9-21.6,17.4-29.6l-1.3-1.3
					c-18.9,14.6-31.8,37-32.5,61.3c-0.5,16.3,7.4,31,13,45.8c5,13.2,11.3,40.9-7.6,46.5c-0.2,0-1.3,0.8-0.9,0.8
					c12.6-0.1,24.4-13.4,27.5-24.7C136.6,137,127.1,120.2,121,104.9z"/>
				<g>
					<path class="st6" d="M152.4,22C152.4,22,152.4,21.9,152.4,22c-0.2-0.1-0.2-0.1-0.3-0.1c-0.6-0.2-1.2-0.4-1.7-0.7l0,0
						c0,0,0,0-0.1,0c-0.3-0.1-0.6-0.2-0.9-0.4l0,0c0,0-0.1,0-0.1-0.1c-0.2-0.1-0.4-0.1-0.5-0.2l0,0c-0.2-0.1-0.5-0.2-0.7-0.3l0,0
						H148l0,0l0,0l0,0c-0.5-0.2-1-0.4-1.4-0.7l0,0c-0.7-0.3-1.3-0.6-2-1l-1.1-0.6c-0.2-0.1-0.5-0.3-0.7-0.4
						c-0.3-0.2-0.5-0.3-0.8-0.5c-0.5-0.3-1-0.6-1.4-0.9l-0.5-0.3c-0.5-0.3-1.1-0.7-1.6-1.1c-0.1-0.1-0.3-0.2-0.4-0.3
						c-0.2-0.1-0.3-0.2-0.5-0.3l0,0c-0.1-0.1-0.3-0.2-0.5-0.3c-0.1,0-0.1-0.1-0.2-0.1c-1-0.8-2-1.6-3-2.4c-0.1-0.1,1-1,1.3-0.7
						s0.6,0.5,1,0.8l0.1,0.1c0.2,0.1,0.3,0.3,0.5,0.4c1.5,1.2,3.1,2.4,4.8,3.4l0,0l0.5,0.3l0,0l0,0c0.9,0.6,1.8,1.1,2.8,1.7l0,0l0,0
						l0,0l1,0.5c1.6,0.9,3.3,1.7,5,2.4c-1.1-1.2-2.2-2.2-3.4-3.3l-0.8-0.7l0,0c-3.1-2.7-6.5-5.2-10.1-7.3c-3.5,1.6-7.3,4.2-9.1,6.2
						c0,0,0,0-0.1,0.1c-0.9,1-1.4,1.8-1,2.2c1.1,1.2,2.1,2.4,3.1,3.5l0,0l0.5,0.6c1,1.1,2,2.2,3,3.3l0,0l1.3,1.3l0,0
						c0.7,0.7,1.5,1.4,2.2,2.1c2.5,2.1,5.5,0.9,8.3-0.2c0.9-0.3,1.8-0.7,2.6-1.2c0,0,0,0,0.1,0l0.1-0.1h0.1c2-1.1,3.8-2.4,5.3-4
						L152.4,22z M147.6,26.5C147.6,26.5,147.5,26.5,147.6,26.5c-0.1,0.1-0.2,0.1-0.2,0.1s0,0-0.1,0s-0.1,0-0.2,0H147
						c-3.1-0.9-6.2-2.1-9.1-3.7l0,0l0,0l0,0c-0.5-0.2-0.9-0.5-1.4-0.7l0,0l0,0c-0.3-0.2-0.5-0.3-0.8-0.5l-0.1-0.1
						c-1-0.6-1.9-1.2-2.8-1.8c-0.2-0.1-0.4-0.3-0.6-0.4c-0.9-0.6-1.8-1.3-2.7-2c-0.3-0.2-0.6-0.5-0.9-0.7c-0.4-0.3-0.8-0.7-1.1-1
						l-0.1-0.1c0,0,0,0,0-0.1c0,0,0,0,0-0.1c0,0,0,0,0-0.1c0.3-0.4,1.4-1.1,1.6-0.8c1.5,1.5,3,2.8,4.6,4.1l0.6,0.4
						c0.3,0.2,0.6,0.4,0.8,0.6c0.1,0.1,0.3,0.2,0.4,0.3c0.1,0.1,0.3,0.2,0.4,0.3c0.1,0.1,0.3,0.2,0.4,0.3c0.1,0.1,0.3,0.2,0.4,0.3
						c0.1,0.1,0.3,0.2,0.4,0.3l0,0c0.1,0.1,0.3,0.2,0.4,0.3l0,0c0,0,0.1,0,0.1,0.1c0.2,0.1,0.4,0.2,0.6,0.3c0.2,0.1,0.4,0.2,0.6,0.3
						l0,0c0.4,0.2,0.7,0.4,1.1,0.6c2.5,1.3,5.2,2.5,7.9,3.3l0,0C148,26.1,147.8,26.3,147.6,26.5z"/>
					<path d="M147.9,26.1c0,0.1-0.6,0.5-0.9,0.6h-0.1c-3.1-0.9-6.2-2.1-9.1-3.7l0,0l0,0l0,0c-0.5-0.2-0.9-0.5-1.4-0.7l0,0l0,0l0,0
						l0,0c-0.3-0.1-0.5-0.3-0.8-0.5l-0.1-0.1c-1-0.6-1.9-1.2-2.8-1.8c-0.2-0.1-0.4-0.3-0.6-0.4c-0.9-0.6-1.8-1.3-2.7-2
						c-0.3-0.2-0.6-0.5-0.9-0.7c-0.4-0.3-0.8-0.7-1.1-1l-0.1-0.1c0,0,0,0,0-0.1c0,0,0,0,0-0.1c0,0,0,0,0-0.1
						c0.3-0.4,1.4-1.1,1.6-0.8c1.5,1.5,3,2.8,4.6,4.1l0.6,0.4c0.3,0.2,0.6,0.4,0.8,0.6c0.1,0.1,0.3,0.2,0.4,0.3
						c0.1,0.1,0.3,0.2,0.4,0.3c0.1,0.1,0.3,0.2,0.4,0.3c0.1,0.1,0.3,0.2,0.4,0.3c0.1,0.1,0.3,0.2,0.4,0.3l0,0
						c0.1,0.1,0.3,0.2,0.4,0.3l0,0c0,0,0.1,0,0.1,0.1c0.2,0.1,0.4,0.2,0.6,0.3c0.2,0.1,0.4,0.2,0.6,0.3l0,0l0,0
						c0.4,0.2,0.7,0.4,1.1,0.6C142.6,24.1,145.2,25.2,147.9,26.1z"/>
					<path d="M152.4,21.9c-0.7-0.2-1.3-0.5-2-0.7l0,0h-0.1c-0.3-0.1-0.6-0.2-0.9-0.4l0,0c0,0-0.1,0-0.1-0.1
						c-0.2-0.1-0.4-0.1-0.5-0.2l0,0c-0.2-0.1-0.5-0.2-0.7-0.3l0,0H148l0,0l0,0l0,0c-0.5-0.2-1-0.4-1.4-0.7l0,0c-0.7-0.3-1.3-0.6-2-1
						l-1.1-0.6c-0.2-0.1-0.5-0.3-0.7-0.4c-0.3-0.2-0.5-0.3-0.8-0.5c-0.5-0.3-1-0.6-1.4-0.9l-0.5-0.3l0,0c-0.5-0.3-1.1-0.7-1.6-1.1
						c-0.1-0.1-0.3-0.2-0.4-0.3c-0.2-0.1-0.3-0.2-0.5-0.3l0,0c-0.1-0.1-0.3-0.2-0.5-0.3c-0.1,0-0.1-0.1-0.2-0.1c-1-0.8-2-1.6-3-2.4
						c-0.1-0.1,1-1,1.3-0.7s0.6,0.5,1,0.8l0.1,0.1c0.2,0.1,0.3,0.3,0.5,0.4c1.5,1.2,3.1,2.4,4.7,3.4l0,0l0,0l0,0l0.4,0.3l0,0l0,0
						l0,0l0,0c0.9,0.6,1.8,1.2,2.7,1.7l0,0l0,0l0,0l1,0.5c1.6,0.9,3.3,1.7,5,2.4C151.3,20.8,151.8,21.3,152.4,21.9z"/>
				</g>
				<g>
					<path class="st6" d="M110.7,28.6L110.7,28.6c-0.2-0.1-0.2-0.1-0.3-0.1c-0.6-0.2-1.2-0.4-1.7-0.7l0,0c0,0,0,0-0.1,0
						c-0.3-0.1-0.6-0.2-0.9-0.4l0,0c0,0-0.1,0-0.1-0.1c-0.2-0.1-0.4-0.1-0.5-0.2l0,0c-0.2-0.1-0.5-0.2-0.7-0.3l0,0h-0.1l0,0l0,0l0,0
						c-0.5-0.2-1-0.4-1.4-0.7l0,0c-0.7-0.3-1.3-0.6-2-1l-1.1-0.6c-0.2-0.1-0.5-0.3-0.7-0.4c-0.3-0.2-0.5-0.3-0.8-0.5
						c-0.5-0.3-1-0.6-1.4-0.9l-0.5-0.3c-0.5-0.3-1.1-0.7-1.6-1.1c-0.1-0.1-0.3-0.2-0.4-0.3c-0.2-0.1-0.3-0.2-0.5-0.3l0,0
						c-0.1-0.1-0.3-0.2-0.5-0.3c-0.1,0-0.1-0.1-0.2-0.1c-1-0.8-2-1.6-3-2.4c-0.1-0.1,1-1,1.3-0.7s0.6,0.5,1,0.8l0.1,0.1
						c0.2,0.1,0.3,0.3,0.5,0.4c1.5,1.2,3.1,2.4,4.8,3.4l0,0l0.5,0.3l0,0l0,0c0.9,0.6,1.8,1.1,2.8,1.7l0,0l0,0l0,0l1,0.5
						c1.6,0.9,3.3,1.7,5,2.4c-1.1-1.2-2.2-2.2-3.4-3.3l-0.8-0.7l0,0c-3.1-2.7-6.5-5.2-10.1-7.3c-3.5,1.6-7.3,4.2-9.1,6.2
						c0,0,0,0-0.1,0.1c-0.9,1-1.4,1.8-1,2.2c1.1,1.2,2.1,2.4,3.1,3.5l0,0l0.5,0.6c1,1.1,2,2.2,3,3.3l0,0l1.3,1.3l0,0
						c0.7,0.7,1.5,1.4,2.2,2.1c2.5,2.1,5.5,0.9,8.3-0.2c0.9-0.3,1.8-0.7,2.6-1.2c0,0,0,0,0.1,0l0.1-0.1h0.1c2-1.1,3.8-2.4,5.3-4
						L110.7,28.6z M105.9,33.1C105.9,33.1,105.9,33.2,105.9,33.1c-0.1,0.1-0.2,0.1-0.2,0.1s0,0-0.1,0s-0.1,0-0.2,0h-0.1
						c-3.1-0.9-6.2-2.1-9.1-3.7l0,0l0,0l0,0c-0.5-0.2-0.9-0.5-1.4-0.7l0,0l0,0c-0.3-0.2-0.5-0.3-0.8-0.5l-0.1-0.1
						c-1-0.6-1.9-1.2-2.8-1.8c-0.2-0.1-0.4-0.3-0.6-0.4c-0.9-0.6-1.8-1.3-2.7-2c-0.3-0.2-0.6-0.5-0.9-0.7c-0.4-0.3-0.8-0.7-1.1-1
						l-0.1-0.1c0,0,0,0,0-0.1c0,0,0,0,0-0.1c0,0,0,0,0-0.1c0.3-0.4,1.4-1.1,1.6-0.8c1.5,1.5,3,2.8,4.6,4.1l0.6,0.4
						c0.3,0.2,0.6,0.4,0.8,0.6c0.1,0.1,0.3,0.2,0.4,0.3c0.1,0.1,0.3,0.2,0.4,0.3c0.1,0.1,0.3,0.2,0.4,0.3c0.1,0.1,0.3,0.2,0.4,0.3
						c0.1,0.1,0.3,0.2,0.4,0.3l0,0c0.1,0.1,0.3,0.2,0.4,0.3l0,0c0,0,0.1,0,0.1,0.1c0.2,0.1,0.4,0.2,0.6,0.3c0.2,0.1,0.4,0.2,0.6,0.3
						l0,0c0.4,0.2,0.7,0.4,1.1,0.6c2.5,1.3,5.2,2.5,7.9,3.3l0,0C106.3,32.8,106.1,33,105.9,33.1z"/>
					<path d="M106.3,32.8c0,0.1-0.6,0.5-0.9,0.6h-0.1c-3.1-0.9-6.2-2.1-9.1-3.7l0,0l0,0l0,0c-0.5-0.2-0.9-0.5-1.4-0.7l0,0l0,0l0,0
						l0,0c-0.3-0.1-0.5-0.3-0.8-0.5l-0.1-0.1c-1-0.6-1.9-1.2-2.8-1.8c-0.2-0.1-0.4-0.3-0.6-0.4c-0.9-0.6-1.8-1.3-2.7-2
						c-0.3-0.2-0.6-0.5-0.9-0.7c-0.4-0.3-0.8-0.7-1.1-1l-0.1-0.1c0,0,0,0,0-0.1c0,0,0,0,0-0.1c0,0,0,0,0-0.1
						c0.3-0.4,1.4-1.1,1.6-0.8c1.5,1.5,3,2.8,4.6,4.1l0.6,0.4c0.3,0.2,0.6,0.4,0.8,0.6c0.1,0.1,0.3,0.2,0.4,0.3
						c0.1,0.1,0.3,0.2,0.4,0.3c0.1,0.1,0.3,0.2,0.4,0.3c0.1,0.1,0.3,0.2,0.4,0.3c0.1,0.1,0.3,0.2,0.4,0.3l0,0
						c0.1,0.1,0.3,0.2,0.4,0.3l0,0c0,0,0.1,0,0.1,0.1c0.2,0.1,0.4,0.2,0.6,0.3c0.2,0.1,0.4,0.2,0.6,0.3l0,0l0,0
						c0.4,0.2,0.7,0.4,1.1,0.6C100.9,30.8,103.5,31.9,106.3,32.8z"/>
					<path d="M110.7,28.6c-0.7-0.2-1.3-0.5-2-0.7l0,0h-0.1c-0.3-0.1-0.6-0.2-0.9-0.4l0,0c0,0-0.1,0-0.1-0.1
						c-0.2-0.1-0.4-0.1-0.5-0.2l0,0c-0.2-0.1-0.5-0.2-0.7-0.3l0,0h-0.1l0,0l0,0l0,0c-0.5-0.2-1-0.4-1.4-0.7l0,0
						c-0.7-0.3-1.3-0.6-2-1l-1.1-0.6c-0.2-0.1-0.5-0.3-0.7-0.4c-0.3-0.2-0.5-0.3-0.8-0.5c-0.5-0.3-1-0.6-1.4-0.9l-0.5-0.3l0,0
						c-0.5-0.3-1.1-0.7-1.6-1.1c-0.1-0.1-0.3-0.2-0.4-0.3c-0.2-0.1-0.3-0.2-0.5-0.3l0,0c-0.1-0.1-0.3-0.2-0.5-0.3
						c-0.1,0-0.1-0.1-0.2-0.1c-1-0.8-2-1.6-3-2.4c-0.1-0.1,1-1,1.3-0.7s0.6,0.5,1,0.8l0.1,0.1c0.2,0.1,0.3,0.3,0.5,0.4
						c1.5,1.2,3.1,2.4,4.7,3.4l0,0l0,0l0,0l0.4,0.3l0,0l0,0l0,0l0,0c0.9,0.6,1.8,1.2,2.7,1.7l0,0l0,0l0,0l1,0.5
						c1.6,0.9,3.3,1.7,5,2.4C109.6,27.4,110.2,28,110.7,28.6z"/>
				</g>
				<path class="st5" d="M37.6,91.7c-2.9,17.5,0.5,34.6,7.1,50.8c3.4,8.3,7.5,16.7,8.6,25.7c0.6,4.6,0.2,9.3-1.3,13.7
					c-0.9,2.8-2.2,7.2-4.9,8.7c-0.2,0.1-1.4,1.1-0.5,0.8c14.6-3.3,23.3-18,22.7-32.2c-0.8-18.3-12-34.1-14.2-52.3
					c-2-17.4,1-35,8.5-50.8c3-6.5,6.8-12.6,11.3-18.1c3.6-4.1,7.8-7.7,12.6-10.4L87.1,27C62.7,40.6,42.2,64.1,37.6,91.7z"/>
				<path class="st5" d="M74.5,61.7c2.8-11.3,8.9-21.6,17.4-29.6c-0.4-0.4-0.9-0.9-1.3-1.3c-18.9,14.6-31.8,37-32.5,61.3
					c-0.5,16.3,7.4,31,13,45.8c5,13.2,11.3,40.9-7.6,46.5c-0.2,0-1.3,0.8-0.9,0.8c12.6-0.1,24.4-13.4,27.5-24.7
					c4.6-17-4.8-33.8-10.9-49.1C73,95.9,70.3,78.1,74.5,61.7z"/>
			</g>
		</g>
	</g>
</g>
</svg>
