<?xml version="1.0" encoding="utf-8"?>
<!-- Generator: Adobe Illustrator 23.0.1, SVG Export Plug-In . SVG Version: 6.00 Build 0)  -->
<svg version="1.1" id="Layer_1" xmlns="http://www.w3.org/2000/svg" xmlns:xlink="http://www.w3.org/1999/xlink" x="0px" y="0px"
	 viewBox="0 0 198.4 198.4" style="enable-background:new 0 0 198.4 198.4;" xml:space="preserve">
<style type="text/css">
	.st0{fill:#2CAEA4;}
	.st1{fill:#24897F;}
	.st2{fill:#92D6B5;}
	.st3{fill:#564A3E;}
	.st4{fill:#FFFFFF;}
	.st5{clip-path:url(#SVGID_2_);fill:#F4E72B;}
	.st6{clip-path:url(#SVGID_2_);fill:#1D1D1B;}
</style>
<title>3 - vágott haj hossza</title>
<g>
	
		<ellipse transform="matrix(0.3805 -0.9248 0.9248 0.3805 -32.3201 153.6954)" class="st0" cx="98.6" cy="101" rx="95.7" ry="95.7"/>
	<path class="st1" d="M180.8,54.6c-3.1-2.9-7.2,1.4-4.6,4.6c5.4,6.3,6,15.9,6.6,23.8c0.6,7.9,0.1,15.8-1.3,23.6
		c-3,15.4-9.9,29.8-19.8,42c-19.9,23.8-53,35.3-83.4,29.2c-10.7-2.1-15.2,14.4-4.5,16.4c37.8,7.3,77.8-6.8,101.2-37.7
		c11.5-15.2,17.5-33,19.1-51.9C195.3,88.2,193.5,66.4,180.8,54.6z"/>
	<path class="st2" d="M98.6,7c51.9,0,93.9,42.1,93.9,93.9s-42.1,93.9-93.9,93.9S4.6,152.9,4.6,101C4.7,49.1,46.7,7.1,98.6,7
		 M98.6,3.5C44.7,3.5,1.1,47.1,1.1,101s43.6,97.5,97.4,97.5c53.8,0,97.5-43.6,97.5-97.4v0C196,47.2,152.4,3.5,98.6,3.5z"/>
	<polygon class="st3" points="97.7,46.3 97.7,40.5 104.1,40.5 104.1,46.3 107.8,46.3 107.8,51.5 104.1,51.5 104.1,57.4 97.7,57.4 
		97.7,51.5 84.9,51.5 84.9,46.9 93.4,30.4 100,30.4 92,46.3 	"/>
	<path class="st3" d="M130.8,33.7c2.1,2.4,3.1,5.8,3.1,10.2c0,4.4-1,7.8-3.1,10.2c-2.1,2.4-5,3.6-8.9,3.6c-3.9,0-6.8-1.2-8.9-3.6
		c-2.1-2.4-3.1-5.8-3.1-10.2c0-4.4,1-7.8,3.1-10.2c2.1-2.4,5-3.6,8.9-3.6C125.8,30.1,128.7,31.3,130.8,33.7z M118.1,37.2
		c-0.8,1.4-1.2,3.6-1.2,6.7s0.4,5.3,1.2,6.7c0.8,1.4,2,2,3.8,2c1.7,0,2.9-0.7,3.7-2.1s1.2-3.6,1.2-6.7c0-3.1-0.4-5.3-1.2-6.7
		c-0.8-1.4-2-2-3.7-2C120.2,35.2,118.9,35.8,118.1,37.2z"/>
	<path class="st3" d="M101.1,84.5c1.6,0.8,2.9,2,3.8,3.5l-4.8,2.9c-1-1.4-2.4-2.2-4.2-2.2c-1.3,0-2.3,0.5-3.1,1.4s-1.2,2.2-1.2,3.8
		c0,1.6,0.4,2.9,1.2,3.9s1.9,1.5,3.2,1.5c2,0,3.4-0.8,4.3-2.4l4.9,2.9c-0.9,1.5-2.1,2.7-3.7,3.6c-1.6,0.8-3.5,1.3-5.8,1.3
		c-2.1,0-4-0.4-5.6-1.3s-2.9-2.1-3.8-3.7c-0.9-1.6-1.4-3.4-1.4-5.5c0-2.1,0.5-4,1.4-5.6c0.9-1.6,2.2-2.9,3.8-3.8
		c1.6-0.9,3.5-1.3,5.7-1.3C97.7,83.3,99.5,83.7,101.1,84.5z"/>
	<path class="st3" d="M141.6,85.4c1.4,1.5,2,3.4,2,5.8v13.1h-6.6V93c0-1.2-0.3-2.2-1-2.9c-0.6-0.7-1.5-1.1-2.6-1.1
		c-1.2,0-2.2,0.5-3,1.4c-0.7,0.9-1.1,2.1-1.1,3.5v10.3h-6.7V93c0-1.2-0.3-2.2-0.9-2.9c-0.6-0.7-1.5-1.1-2.6-1.1
		c-1.3,0-2.3,0.5-3,1.4c-0.7,0.9-1.1,2.1-1.1,3.5v10.3h-6.7V83.5h6.7v3.4c0.7-1.2,1.6-2.2,2.8-2.8c1.2-0.6,2.5-0.9,4.1-1
		c1.7,0,3.1,0.4,4.4,1.3c1.2,0.8,2.1,2,2.6,3.5c0.7-1.5,1.6-2.7,2.9-3.5c1.3-0.8,2.7-1.2,4.5-1.2C138.4,83.2,140.2,83.9,141.6,85.4z
		"/>
	<path class="st3" d="M119.8,132.3c1.4,1.5,2,3.4,2,5.8v13.1h-6.6v-11.3c0-1.2-0.3-2.2-1-2.9c-0.6-0.7-1.5-1.1-2.6-1.1
		c-1.2,0-2.2,0.5-3,1.4c-0.7,0.9-1.1,2.1-1.1,3.5v10.3h-6.7v-11.3c0-1.2-0.3-2.2-0.9-2.9c-0.6-0.7-1.5-1.1-2.6-1.1
		c-1.3,0-2.3,0.5-3,1.4c-0.7,0.9-1.1,2.1-1.1,3.5v10.3h-6.7v-20.9h6.7v3.4c0.7-1.2,1.6-2.2,2.8-2.8c1.2-0.6,2.5-0.9,4.1-1
		c1.7,0,3.1,0.4,4.4,1.3c1.2,0.8,2.1,2,2.6,3.5c0.7-1.5,1.6-2.7,2.9-3.5s2.7-1.2,4.5-1.2C116.7,130.1,118.5,130.8,119.8,132.3z"/>
	<path class="st3" d="M132.5,121.8c0.7,0.7,1,1.5,1,2.5c0,1-0.3,1.9-1,2.6s-1.5,1-2.5,1c-1,0-1.9-0.3-2.5-1c-0.7-0.7-1-1.5-1-2.6
		c0-1,0.3-1.9,1-2.5c0.7-0.7,1.5-1,2.5-1C131,120.9,131.8,121.2,132.5,121.8z M126.6,151.2v-20.9h6.7v20.9H126.6z"/>
	<path class="st3" d="M157.8,132.3c1.4,1.5,2.1,3.4,2.1,5.8v13.1h-6.7v-11.3c0-1.2-0.3-2.2-1-2.9s-1.5-1.1-2.7-1.1
		c-1.2,0-2.2,0.4-2.9,1.2c-0.8,0.8-1.2,1.8-1.3,3.1v11h-6.7v-20.9h6.7v3.4c1.5-2.4,3.8-3.7,7-3.7
		C154.6,130.1,156.4,130.8,157.8,132.3z"/>
	<path class="st3" d="M169,146c0.6,0.6,0.9,1.4,0.9,2.3c0,1-0.3,1.7-0.9,2.3c-0.6,0.6-1.4,0.9-2.3,0.9s-1.7-0.3-2.3-0.9
		s-0.9-1.4-0.9-2.3s0.3-1.7,0.9-2.3s1.4-0.9,2.3-0.9S168.4,145.4,169,146z"/>
	<polygon class="st4" points="99.6,44.3 99.6,38.5 106,38.5 106,44.3 109.7,44.3 109.7,49.6 106,49.6 106,55.5 99.6,55.5 99.6,49.6 
		86.8,49.6 86.8,44.9 95.3,28.4 101.9,28.4 93.9,44.3 	"/>
	<path class="st4" d="M132.7,31.8c2.1,2.4,3.1,5.8,3.1,10.2c0,4.4-1,7.8-3.1,10.2c-2.1,2.4-5,3.6-8.9,3.6c-3.9,0-6.8-1.2-8.9-3.6
		c-2.1-2.4-3.1-5.8-3.1-10.2c0-4.4,1-7.8,3.1-10.2c2.1-2.4,5-3.6,8.9-3.6C127.7,28.2,130.6,29.4,132.7,31.8z M120,35.2
		c-0.8,1.4-1.2,3.6-1.2,6.7c0,3.1,0.4,5.3,1.2,6.7s2,2,3.8,2c1.7,0,2.9-0.7,3.7-2.1c0.8-1.4,1.2-3.6,1.2-6.7c0-3.1-0.4-5.3-1.2-6.7
		s-2-2-3.7-2C122.1,33.2,120.8,33.9,120,35.2z"/>
	<path class="st4" d="M103,82.5c1.6,0.8,2.9,2,3.8,3.5l-4.8,2.9c-1-1.4-2.4-2.2-4.2-2.2c-1.3,0-2.3,0.5-3.1,1.4s-1.2,2.2-1.2,3.8
		c0,1.6,0.4,2.9,1.2,3.9s1.9,1.5,3.2,1.5c2,0,3.4-0.8,4.3-2.4l4.9,2.9c-0.9,1.5-2.1,2.7-3.7,3.6c-1.6,0.8-3.5,1.3-5.8,1.3
		c-2.1,0-4-0.4-5.6-1.3s-2.9-2.1-3.8-3.7s-1.4-3.4-1.4-5.5c0-2.1,0.5-4,1.4-5.6c0.9-1.6,2.2-2.9,3.8-3.8c1.6-0.9,3.5-1.3,5.7-1.3
		C99.5,81.3,101.4,81.7,103,82.5z"/>
	<path class="st4" d="M143.4,83.4c1.4,1.5,2,3.4,2,5.8v13.1h-6.6V91.1c0-1.2-0.3-2.2-1-2.9c-0.6-0.7-1.5-1.1-2.6-1.1
		c-1.2,0-2.2,0.5-3,1.4c-0.7,0.9-1.1,2.1-1.1,3.5v10.3h-6.7V91.1c0-1.2-0.3-2.2-0.9-2.9c-0.6-0.7-1.5-1.1-2.6-1.1
		c-1.3,0-2.3,0.5-3,1.4c-0.8,0.9-1.1,2.1-1.1,3.5v10.3h-6.7V81.5h6.7V85c0.7-1.2,1.6-2.2,2.8-2.8s2.5-0.9,4.1-1
		c1.7,0,3.1,0.4,4.4,1.3s2.1,2,2.6,3.5c0.7-1.5,1.6-2.7,2.9-3.5s2.7-1.2,4.5-1.2C140.3,81.2,142.1,82,143.4,83.4z"/>
	<path class="st4" d="M121.7,130.3c1.4,1.5,2,3.4,2,5.8v13.1h-6.6V138c0-1.2-0.3-2.2-1-2.9c-0.6-0.7-1.5-1.1-2.6-1.1
		c-1.2,0-2.2,0.5-3,1.4c-0.7,0.9-1.1,2.1-1.1,3.5v10.3h-6.7V138c0-1.2-0.3-2.2-0.9-2.9c-0.6-0.7-1.5-1.1-2.6-1.1
		c-1.3,0-2.3,0.5-3,1.4c-0.7,0.9-1.1,2.1-1.1,3.5v10.3h-6.7v-20.9h6.7v3.4c0.7-1.2,1.6-2.2,2.8-2.8c1.2-0.6,2.5-0.9,4.1-1
		c1.7,0,3.1,0.4,4.4,1.3c1.2,0.8,2.1,2,2.6,3.5c0.7-1.5,1.6-2.7,2.9-3.5s2.7-1.2,4.5-1.2C118.5,128.1,120.4,128.9,121.7,130.3z"/>
	<path class="st4" d="M134.4,119.9c0.7,0.7,1,1.5,1,2.5s-0.3,1.9-1,2.6c-0.7,0.7-1.5,1-2.5,1c-1,0-1.9-0.3-2.5-1
		c-0.7-0.7-1-1.5-1-2.6s0.3-1.9,1-2.5c0.7-0.7,1.5-1,2.5-1C132.9,118.9,133.7,119.2,134.4,119.9z M128.5,149.3v-20.9h6.7v20.9H128.5
		z"/>
	<path class="st4" d="M159.7,130.3c1.4,1.5,2.1,3.4,2.1,5.8v13.1h-6.7V138c0-1.2-0.3-2.2-1-2.9c-0.7-0.7-1.5-1.1-2.7-1.1
		c-1.2,0-2.2,0.4-2.9,1.2c-0.8,0.8-1.2,1.8-1.3,3.1v11h-6.7v-20.9h6.7v3.4c1.5-2.4,3.8-3.7,7-3.7
		C156.5,128.1,158.3,128.9,159.7,130.3z"/>
	<path class="st4" d="M170.9,144c0.6,0.6,0.9,1.4,0.9,2.3c0,1-0.3,1.7-0.9,2.3c-0.6,0.6-1.4,0.9-2.3,0.9s-1.7-0.3-2.3-0.9
		c-0.6-0.6-0.9-1.4-0.9-2.3s0.3-1.7,0.9-2.3c0.6-0.6,1.4-0.9,2.3-0.9S170.3,143.4,170.9,144z"/>
	<g>
		<defs>
			<path id="SVGID_1_" d="M98.5,0c-1.7,0-13.9,2.8-24.1,3.1c-20.3,0.8-44.9-0.5-48.1,0C0.4,7,13.8,13.9,14.9,33.5
				C15.8,49.3,2.4,75.7,2.4,97.4c0,53.8,43.6,97.5,97.4,97.5c53.8,0,97.5-43.6,97.5-97.4v0C197.3,43.6,152.4,0,98.5,0z"/>
		</defs>
		<clipPath id="SVGID_2_">
			<use xlink:href="#SVGID_1_"  style="overflow:visible;"/>
		</clipPath>
		<path class="st5" d="M27.1,224.1c11.6,12.4,28.3,18.9,42.6,27.7c0.5,0.3,0.9,0.6,1.3,1h3.5V3.1H26.4v220.2
			C26.6,223.6,26.9,223.8,27.1,224.1z M50.4,8.5c2.1,0,3.9,1.7,3.9,3.9s-1.7,3.9-3.9,3.9c-2.1,0-3.9-1.7-3.9-3.9S48.3,8.5,50.4,8.5z
			"/>
		<path class="st6" d="M74.5,253H71l-0.2-0.1c-0.4-0.3-0.8-0.7-1.2-0.9c-4.2-2.6-8.7-5-13.1-7.4c-10.5-5.7-21.3-11.6-29.6-20.3l0,0
			c-0.1-0.2-0.3-0.3-0.4-0.4l-0.2-0.2l-0.1-0.2V3.1c0-0.2,0.1-0.3,0.3-0.3h48.1c0.2,0,0.3,0.1,0.3,0.3v249.6
			C74.8,252.9,74.7,253,74.5,253z M71.1,252.4h3.1V3.5H26.7v219.8l0.1,0.1c0.2,0.1,0.3,0.3,0.5,0.5c8.2,8.7,18.9,14.5,29.4,20.2
			c4.4,2.4,8.9,4.8,13.1,7.4C70.3,251.7,70.7,252,71.1,252.4z M50.4,16.5c-2.3,0-4.2-1.9-4.2-4.2c0-2.3,1.9-4.2,4.2-4.2
			s4.2,1.9,4.2,4.2C54.6,14.6,52.7,16.5,50.4,16.5z M50.4,8.8c-1.9,0-3.5,1.6-3.5,3.5s1.6,3.5,3.5,3.5s3.5-1.6,3.5-3.5
			S52.4,8.8,50.4,8.8z"/>
		<path class="st6" d="M33.6,10.4h-7.2c-0.2,0-0.3-0.1-0.3-0.3s0.1-0.3,0.3-0.3h7.2c0.2,0,0.3,0.1,0.3,0.3S33.7,10.4,33.6,10.4z"/>
		<path class="st6" d="M33.6,14.1h-7.2c-0.2,0-0.3-0.1-0.3-0.3s0.1-0.3,0.3-0.3h7.2c0.2,0,0.3,0.1,0.3,0.3S33.7,14.1,33.6,14.1z"/>
		<path class="st6" d="M33.6,17.7h-7.2c-0.2,0-0.3-0.1-0.3-0.3s0.1-0.3,0.3-0.3h7.2c0.2,0,0.3,0.1,0.3,0.3S33.7,17.7,33.6,17.7z"/>
		<path class="st6" d="M33.6,21.4h-7.2c-0.2,0-0.3-0.1-0.3-0.3s0.1-0.3,0.3-0.3h7.2c0.2,0,0.3,0.1,0.3,0.3S33.7,21.4,33.6,21.4z"/>
		<path class="st6" d="M33.6,25h-7.2c-0.2,0-0.3-0.1-0.3-0.3s0.1-0.3,0.3-0.3h7.2c0.2,0,0.3,0.1,0.3,0.3S33.7,25,33.6,25z"/>
		<path class="st6" d="M33.6,28.6h-7.2c-0.2,0-0.3-0.1-0.3-0.3s0.1-0.3,0.3-0.3h7.2c0.2,0,0.3,0.1,0.3,0.3S33.7,28.6,33.6,28.6z"/>
		<path class="st6" d="M33.6,32.3h-7.2c-0.2,0-0.3-0.1-0.3-0.3s0.1-0.3,0.3-0.3h7.2c0.2,0,0.3,0.1,0.3,0.3S33.7,32.3,33.6,32.3z"/>
		<path class="st6" d="M33.6,35.9h-7.2c-0.2,0-0.3-0.1-0.3-0.3s0.1-0.3,0.3-0.3h7.2c0.2,0,0.3,0.1,0.3,0.3S33.7,35.9,33.6,35.9z"/>
		<path class="st6" d="M33.6,39.6h-7.2c-0.2,0-0.3-0.1-0.3-0.3s0.1-0.3,0.3-0.3h7.2c0.2,0,0.3,0.1,0.3,0.3S33.7,39.6,33.6,39.6z"/>
		<path class="st6" d="M42.7,43.2H26.4c-0.2,0-0.3-0.1-0.3-0.3s0.1-0.3,0.3-0.3h16.3c0.2,0,0.3,0.1,0.3,0.3S42.8,43.2,42.7,43.2z"/>
		<path class="st6" d="M33.6,46.8h-7.2c-0.2,0-0.3-0.1-0.3-0.3s0.1-0.3,0.3-0.3h7.2c0.2,0,0.3,0.1,0.3,0.3S33.7,46.8,33.6,46.8z"/>
		<path class="st6" d="M33.6,50.5h-7.2c-0.2,0-0.3-0.1-0.3-0.3s0.1-0.3,0.3-0.3h7.2c0.2,0,0.3,0.1,0.3,0.3S33.7,50.5,33.6,50.5z"/>
		<path class="st6" d="M33.6,54.1h-7.2c-0.2,0-0.3-0.1-0.3-0.3s0.1-0.3,0.3-0.3h7.2c0.2,0,0.3,0.1,0.3,0.3S33.7,54.1,33.6,54.1z"/>
		<path class="st6" d="M33.6,57.8h-7.2c-0.2,0-0.3-0.1-0.3-0.3s0.1-0.3,0.3-0.3h7.2c0.2,0,0.3,0.1,0.3,0.3S33.7,57.8,33.6,57.8z"/>
		<path class="st6" d="M37.6,61.4H26.4c-0.2,0-0.3-0.1-0.3-0.3s0.1-0.3,0.3-0.3h11.2c0.2,0,0.3,0.1,0.3,0.3S37.8,61.4,37.6,61.4z"/>
		<path class="st6" d="M33.6,65h-7.2c-0.2,0-0.3-0.1-0.3-0.3s0.1-0.3,0.3-0.3h7.2c0.2,0,0.3,0.1,0.3,0.3S33.7,65,33.6,65z"/>
		<path class="st6" d="M33.6,68.7h-7.2c-0.2,0-0.3-0.1-0.3-0.3s0.1-0.3,0.3-0.3h7.2c0.2,0,0.3,0.1,0.3,0.3S33.7,68.7,33.6,68.7z"/>
		<path class="st6" d="M33.6,72.3h-7.2c-0.2,0-0.3-0.1-0.3-0.3s0.1-0.3,0.3-0.3h7.2c0.2,0,0.3,0.1,0.3,0.3S33.7,72.3,33.6,72.3z"/>
		<path class="st6" d="M33.6,75.9h-7.2c-0.2,0-0.3-0.1-0.3-0.3s0.1-0.3,0.3-0.3h7.2c0.2,0,0.3,0.1,0.3,0.3S33.7,75.9,33.6,75.9z"/>
		<path class="st6" d="M42.7,79.6H26.4c-0.2,0-0.3-0.1-0.3-0.3s0.1-0.3,0.3-0.3h16.3c0.2,0,0.3,0.1,0.3,0.3S42.8,79.6,42.7,79.6z"/>
		<path class="st6" d="M42.7,79.6H26.4c-0.2,0-0.3-0.1-0.3-0.3s0.1-0.3,0.3-0.3h16.3c0.2,0,0.3,0.1,0.3,0.3S42.8,79.6,42.7,79.6z"/>
		<path class="st6" d="M33.6,83.2h-7.2c-0.2,0-0.3-0.1-0.3-0.3s0.1-0.3,0.3-0.3h7.2c0.2,0,0.3,0.1,0.3,0.3S33.7,83.2,33.6,83.2z"/>
		<path class="st6" d="M33.6,86.9h-7.2c-0.2,0-0.3-0.1-0.3-0.3s0.1-0.3,0.3-0.3h7.2c0.2,0,0.3,0.1,0.3,0.3S33.7,86.9,33.6,86.9z"/>
		<path class="st6" d="M33.6,90.5h-7.2c-0.2,0-0.3-0.1-0.3-0.3s0.1-0.3,0.3-0.3h7.2c0.2,0,0.3,0.1,0.3,0.3S33.7,90.5,33.6,90.5z"/>
		<path class="st6" d="M33.6,94.1h-7.2c-0.2,0-0.3-0.1-0.3-0.3s0.1-0.3,0.3-0.3h7.2c0.2,0,0.3,0.1,0.3,0.3S33.7,94.1,33.6,94.1z"/>
		<path class="st6" d="M37.6,97.8H26.4c-0.2,0-0.3-0.1-0.3-0.3s0.1-0.3,0.3-0.3h11.2c0.2,0,0.3,0.1,0.3,0.3S37.8,97.8,37.6,97.8z"/>
		<path class="st6" d="M33.6,101.4h-7.2c-0.2,0-0.3-0.1-0.3-0.3s0.1-0.3,0.3-0.3h7.2c0.2,0,0.3,0.1,0.3,0.3S33.7,101.4,33.6,101.4z"
			/>
		<path class="st6" d="M33.6,105.1h-7.2c-0.2,0-0.3-0.1-0.3-0.3s0.1-0.3,0.3-0.3h7.2c0.2,0,0.3,0.1,0.3,0.3S33.7,105.1,33.6,105.1z"
			/>
		<path class="st6" d="M33.6,108.7h-7.2c-0.2,0-0.3-0.1-0.3-0.3s0.1-0.3,0.3-0.3h7.2c0.2,0,0.3,0.1,0.3,0.3S33.7,108.7,33.6,108.7z"
			/>
		<path class="st6" d="M33.6,112.3h-7.2c-0.2,0-0.3-0.1-0.3-0.3s0.1-0.3,0.3-0.3h7.2c0.2,0,0.3,0.1,0.3,0.3S33.7,112.3,33.6,112.3z"
			/>
		<path class="st6" d="M42.7,116H26.4c-0.2,0-0.3-0.1-0.3-0.3s0.1-0.3,0.3-0.3h16.3c0.2,0,0.3,0.1,0.3,0.3S42.8,116,42.7,116z"/>
		<path class="st6" d="M42.7,116H26.4c-0.2,0-0.3-0.1-0.3-0.3s0.1-0.3,0.3-0.3h16.3c0.2,0,0.3,0.1,0.3,0.3S42.8,116,42.7,116z"/>
		<path class="st6" d="M33.6,119.6h-7.2c-0.2,0-0.3-0.1-0.3-0.3s0.1-0.3,0.3-0.3h7.2c0.2,0,0.3,0.1,0.3,0.3S33.7,119.6,33.6,119.6z"
			/>
		<path class="st6" d="M33.6,123.3h-7.2c-0.2,0-0.3-0.1-0.3-0.3s0.1-0.3,0.3-0.3h7.2c0.2,0,0.3,0.1,0.3,0.3S33.7,123.3,33.6,123.3z"
			/>
		<path class="st6" d="M33.6,126.9h-7.2c-0.2,0-0.3-0.1-0.3-0.3s0.1-0.3,0.3-0.3h7.2c0.2,0,0.3,0.1,0.3,0.3S33.7,126.9,33.6,126.9z"
			/>
		<path class="st6" d="M33.6,130.5h-7.2c-0.2,0-0.3-0.1-0.3-0.3s0.1-0.3,0.3-0.3h7.2c0.2,0,0.3,0.1,0.3,0.3S33.7,130.5,33.6,130.5z"
			/>
		<path class="st6" d="M37.6,134.2H26.4c-0.2,0-0.3-0.1-0.3-0.3s0.1-0.3,0.3-0.3h11.2c0.2,0,0.3,0.1,0.3,0.3S37.8,134.2,37.6,134.2z
			"/>
		<path class="st6" d="M33.6,137.8h-7.2c-0.2,0-0.3-0.1-0.3-0.3s0.1-0.3,0.3-0.3h7.2c0.2,0,0.3,0.1,0.3,0.3S33.7,137.8,33.6,137.8z"
			/>
		<path class="st6" d="M33.6,141.5h-7.2c-0.2,0-0.3-0.1-0.3-0.3s0.1-0.3,0.3-0.3h7.2c0.2,0,0.3,0.1,0.3,0.3S33.7,141.5,33.6,141.5z"
			/>
		<path class="st6" d="M33.6,145.1h-7.2c-0.2,0-0.3-0.1-0.3-0.3s0.1-0.3,0.3-0.3h7.2c0.2,0,0.3,0.1,0.3,0.3S33.7,145.1,33.6,145.1z"
			/>
		<path class="st6" d="M33.6,148.7h-7.2c-0.2,0-0.3-0.1-0.3-0.3s0.1-0.3,0.3-0.3h7.2c0.2,0,0.3,0.1,0.3,0.3S33.7,148.7,33.6,148.7z"
			/>
		<path class="st6" d="M42.7,152.4H26.4c-0.2,0-0.3-0.1-0.3-0.3s0.1-0.3,0.3-0.3h16.3c0.2,0,0.3,0.1,0.3,0.3S42.8,152.4,42.7,152.4z
			"/>
		<path class="st6" d="M42.7,152.4H26.4c-0.2,0-0.3-0.1-0.3-0.3s0.1-0.3,0.3-0.3h16.3c0.2,0,0.3,0.1,0.3,0.3S42.8,152.4,42.7,152.4z
			"/>
		<path class="st6" d="M33.6,156h-7.2c-0.2,0-0.3-0.1-0.3-0.3s0.1-0.3,0.3-0.3h7.2c0.2,0,0.3,0.1,0.3,0.3S33.7,156,33.6,156z"/>
		<path class="st6" d="M33.6,159.7h-7.2c-0.2,0-0.3-0.1-0.3-0.3s0.1-0.3,0.3-0.3h7.2c0.2,0,0.3,0.1,0.3,0.3S33.7,159.7,33.6,159.7z"
			/>
		<path class="st6" d="M33.6,163.3h-7.2c-0.2,0-0.3-0.1-0.3-0.3s0.1-0.3,0.3-0.3h7.2c0.2,0,0.3,0.1,0.3,0.3S33.7,163.3,33.6,163.3z"
			/>
		<path class="st6" d="M33.6,166.9h-7.2c-0.2,0-0.3-0.1-0.3-0.3s0.1-0.3,0.3-0.3h7.2c0.2,0,0.3,0.1,0.3,0.3S33.7,166.9,33.6,166.9z"
			/>
		<path class="st6" d="M37.6,170.6H26.4c-0.2,0-0.3-0.1-0.3-0.3s0.1-0.3,0.3-0.3h11.2c0.2,0,0.3,0.1,0.3,0.3S37.8,170.6,37.6,170.6z
			"/>
		<path class="st6" d="M33.6,174.2h-7.2c-0.2,0-0.3-0.1-0.3-0.3s0.1-0.3,0.3-0.3h7.2c0.2,0,0.3,0.1,0.3,0.3S33.7,174.2,33.6,174.2z"
			/>
		<path class="st6" d="M33.6,177.9h-7.2c-0.2,0-0.3-0.1-0.3-0.3s0.1-0.3,0.3-0.3h7.2c0.2,0,0.3,0.1,0.3,0.3S33.7,177.9,33.6,177.9z"
			/>
		<path class="st6" d="M33.6,181.5h-7.2c-0.2,0-0.3-0.1-0.3-0.3s0.1-0.3,0.3-0.3h7.2c0.2,0,0.3,0.1,0.3,0.3S33.7,181.5,33.6,181.5z"
			/>
		<path class="st6" d="M33.6,185.1h-7.2c-0.2,0-0.3-0.1-0.3-0.3s0.1-0.3,0.3-0.3h7.2c0.2,0,0.3,0.1,0.3,0.3S33.7,185.1,33.6,185.1z"
			/>
		<path class="st6" d="M42.7,188.8H26.4c-0.2,0-0.3-0.1-0.3-0.3s0.1-0.3,0.3-0.3h16.3c0.2,0,0.3,0.1,0.3,0.3S42.8,188.8,42.7,188.8z
			"/>
		<path class="st6" d="M42.7,188.8H26.4c-0.2,0-0.3-0.1-0.3-0.3s0.1-0.3,0.3-0.3h16.3c0.2,0,0.3,0.1,0.3,0.3S42.8,188.8,42.7,188.8z
			"/>
		<path class="st6" d="M33.6,192.4h-7.2c-0.2,0-0.3-0.1-0.3-0.3s0.1-0.3,0.3-0.3h7.2c0.2,0,0.3,0.1,0.3,0.3S33.7,192.4,33.6,192.4z"
			/>
		<path class="st6" d="M33.6,196.1h-7.2c-0.2,0-0.3-0.1-0.3-0.3s0.1-0.3,0.3-0.3h7.2c0.2,0,0.3,0.1,0.3,0.3S33.7,196.1,33.6,196.1z"
			/>
	</g>
</g>
</svg>
