<?xml version="1.0" encoding="utf-8"?>
<!-- Generator: Adobe Illustrator 23.0.1, SVG Export Plug-In . SVG Version: 6.00 Build 0)  -->
<svg version="1.1" id="Layer_1" xmlns="http://www.w3.org/2000/svg" xmlns:xlink="http://www.w3.org/1999/xlink" x="0px" y="0px"
	 viewBox="0 0 375 358" style="enable-background:new 0 0 375 358;" xml:space="preserve">
<style type="text/css">
	.st0{opacity:0.1;}
	.st1{fill:#2CAEA4;}
	.st2{clip-path:url(#SVGID_2_);}
	.st3{fill:#24897F;}
	.st4{fill:#FFFFFF;}
</style>
<g class="st0">
	<path class="st1" d="M348.5,179c0-89-72-161-161-161s-161,72-161,161c0,88.9,72,161,161,161S348.5,268,348.5,179z"/>
	<g>
		<g>
			<g>
				<g>
					<defs>
						<circle id="SVGID_1_" cx="187.5" cy="179" r="161"/>
					</defs>
					<clipPath id="SVGID_2_">
						<use xlink:href="#SVGID_1_"  style="overflow:visible;"/>
					</clipPath>
					<g class="st2">
						<polygon class="st3" points="124.5,240.8 253.1,371.6 371.6,384 385.7,244.2 247.5,125.7 214.2,123.1 173.8,119.6 156.4,113 
							145.1,116.3 136.8,123.5 139.2,213.6 137,225.9 						"/>
						<path class="st4" d="M243.2,129.1c6,0,6.7-2.6,1.5-5.6l-17.6-10.6c-5.1-3.1-13.5-8.1-18.6-11.3L190.9,91
							c-5.1-3.1-13.5-3.1-18.7,0l-17.6,10.6c-5.1,3.1-13.5,8.1-18.6,11.3l-17.6,10.6c-5.1,3.1-4.4,5.6,1.6,5.6h12.7v97.5h-2.5
							c-4.6,0-8.3,2.6-8.3,5.9v4.3c0,3.2,3.8,5.9,8.3,5.9h106.5c4.6,0,8.3-2.6,8.3-5.9v-4.3c0-3.2-3.8-5.9-8.3-5.9h-4.1v-97.5H243.2
							z M153.4,129.1h17.3c0.5,0,1,0,1.5,0v97.5h-18.8V129.1L153.4,129.1z M211.8,226.6H193v-97.5h18.8V226.6z"/>
					</g>
				</g>
			</g>
		</g>
	</g>
</g>
</svg>
