<?xml version="1.0" encoding="utf-8"?>
<!-- Generator: Adobe Illustrator 23.0.1, SVG Export Plug-In . SVG Version: 6.00 Build 0)  -->
<svg version="1.1" id="Layer_1" xmlns="http://www.w3.org/2000/svg" xmlns:xlink="http://www.w3.org/1999/xlink" x="0px" y="0px"
	 viewBox="0 0 167 159" style="enable-background:new 0 0 167 159;" xml:space="preserve">
<style type="text/css">
	.st0{font-family:'Hind-Light';}
	.st1{font-size:10px;}
	.st2{opacity:0.15;enable-background:new    ;}
	.st3{fill:url(#SVGID_1_);}
	.st4{fill:#FFC2C2;}
	.st5{opacity:8.629960e-02;fill:#3F210B;enable-background:new    ;}
	.st6{fill:url(#SVGID_2_);stroke:url(#SVGID_3_);stroke-miterlimit:10;}
	.st7{opacity:0.77;}
	.st8{enable-background:new    ;}
	.st9{fill:#800000;}
	.st10{fill:#900000;}
	.st11{fill:#EE0000;}
	.st12{fill:#4C2B0E;}
</style>
<g>
	<text transform="matrix(1 0 0 1 108.854 101.0989)" class="st0 st1">Felajánlható</text>
	<text transform="matrix(1 0 0 1 122.654 113.0989)" class="st0 st1">hossz</text>
	<text transform="matrix(1 0 0 1 119.9692 74.5374)" class="st0 st1">} +2cm</text>
	<text transform="matrix(1 0 0 1 118.0844 37.3167)" class="st0 st1">Vágatni </text>
	<text transform="matrix(1 0 0 1 108.5844 49.3167)" class="st0 st1">kívánt hossz</text>
</g>
<path class="st2" d="M78.6,23.2C78.6,23.2,78.6,23.3,78.6,23.2C78.7,23.3,78.6,23.2,78.6,23.2z"/>
<linearGradient id="SVGID_1_" gradientUnits="userSpaceOnUse" x1="55.5726" y1="107.4045" x2="52.4423" y2="30.9045" gradientTransform="matrix(1 0 0 -1 0 160)">
	<stop  offset="0" style="stop-color:#4C2B0E"/>
	<stop  offset="1" style="stop-color:#603813"/>
</linearGradient>
<path class="st3" d="M86.4,14.7c-6.7-4.6-15.6-2.1-20.1,0.3c-3.8,2-12.5,5.7-18.6,16.1s-7.2,15.8-7.6,33.4
	c-0.4,16.8-9.6,64.3-1.2,85.1c-10.8-23.3-15-43.5-14.3-55.4c0.4-7.3,0.6-11,2.5-15.9c0.3-0.7,0.5-1.3,0.8-1.9
	c2.5-5.6,5.4-8.1,5.6-14c0.1-2.1-0.5-4.8-1.8-10.2c-1.8-8-2.9-9.5-3.3-12c0-0.3-0.1-0.7-0.1-1.1c-0.4-7.1,4.5-12.6,8.6-17.3
	C44.6,13,53.2,9.1,59.8,7.3C66.7,5.6,74.6,4.9,86.4,14.7z"/>
<path class="st4" d="M33.6,62.3c-0.3,5.8-3.1,8.3-5.6,14l-0.2-0.1c-7.9-12.1-2.9-30.5,0.6-36h0.2c0.3,2.4,1.4,3.9,3.3,12
	C33.1,57.6,33.7,60.3,33.6,62.3z"/>
<g>
	<g>
		<g>
			<path class="st5" d="M72.4,142.5c0.3,0,0.8-0.1,1-0.3c-0.1,0.1,0.6-0.3,0.3-0.3c-0.3,0-0.8,0.1-1,0.3
				C72.8,142.1,72.2,142.5,72.4,142.5z"/>
			<path class="st5" d="M68.5,141c0.8,0,0.1-1.4-0.4-1.4C67.3,139.6,68,141,68.5,141z"/>
			<path class="st5" d="M69.3,134.5c0.4,0,1.2-0.6,1.2-0.6C70.2,133.8,69.3,134.5,69.3,134.5z"/>
			<path class="st5" d="M75.6,139.3c0.5,0,0.9-0.5,0.7-1c-0.2-0.6-1.1-0.5-1.6-0.5s-0.9,0.5-0.7,1C74.2,139.4,75.1,139.3,75.6,139.3
				z"/>
			<path class="st5" d="M67.7,139.5c0.1,0,0-1.5-0.2-1.5C67.4,138,67.5,139.5,67.7,139.5z"/>
			<path class="st5" d="M73.5,134c0.5,0-0.9-0.5-1.1-0.5C71.9,133.5,73.3,134,73.5,134z"/>
			<path class="st5" d="M74.1,134.9c0.7,0-0.5-0.9-0.8-0.9C72.6,134,73.8,134.9,74.1,134.9z"/>
			<path class="st5" d="M71.9,135.6c1.1,0,1.3-2.2,0.2-2.2C71.1,133.4,70.9,135.6,71.9,135.6z"/>
			<path class="st5" d="M71.2,142.9c-0.1,0-1-0.4-1.3-0.4C70,142.5,70.9,142.9,71.2,142.9z"/>
			<path class="st5" d="M76.2,138.3c0.3,0,0.2-1.5-0.2-1.5C75.7,136.9,75.8,138.3,76.2,138.3z"/>
			<path class="st5" d="M75,141c0.5,0,1.2-1.4,0.4-1.4C74.9,139.6,74.2,141,75,141z"/>
			<path class="st5" d="M70.4,142.5c0.8,0-0.4-0.9-0.9-0.9C68.8,141.5,70,142.5,70.4,142.5z"/>
			<path class="st5" d="M67.9,136.3c0.4,0,0.7-1.2,0.9-1.2C68.4,135.1,68.1,136.3,67.9,136.3z"/>
			<path class="st5" d="M69,135.2c1.2,0,1.2-1.8,0.2-1.8C68,133.4,68.1,135.2,69,135.2z"/>
			<path class="st5" d="M71.3,142.8c1,0,1.2-2,0.1-2C70.4,140.7,70.3,142.8,71.3,142.8z"/>
			<path class="st5" d="M76.2,136.8c0,0-0.3-1.3-0.7-1.3C75.6,135.5,75.9,136.8,76.2,136.8z"/>
			<path class="st5" d="M74.1,141.8c0.4,0,0.8-1,1.1-1C74.8,140.8,74.4,141.8,74.1,141.8z"/>
			<path class="st5" d="M68.7,141.5c0.1,0-0.5-1.1-0.8-1.1C67.8,140.4,68.5,141.5,68.7,141.5z"/>
			<path class="st5" d="M75,135.1c0.1,0-0.7-0.9-1-0.9C73.9,134.1,74.7,135.1,75,135.1z"/>
		</g>
	</g>
</g>
<linearGradient id="SVGID_2_" gradientUnits="userSpaceOnUse" x1="50.5632" y1="100.8072" x2="81.0849" y2="49.155" gradientTransform="matrix(1 0 0 -1 0 160)">
	<stop  offset="0" style="stop-color:#4C2B0E"/>
	<stop  offset="1" style="stop-color:#603813"/>
</linearGradient>
<linearGradient id="SVGID_3_" gradientUnits="userSpaceOnUse" x1="34.9021" y1="32.6894" x2="95.6267" y2="135.4543">
	<stop  offset="0" style="stop-color:#4C2B0E"/>
	<stop  offset="1" style="stop-color:#603813"/>
</linearGradient>
<path class="st6" d="M94.5,135.1c-3,2.9-5.9,3.3-7.3,3.4c-1.4,0-5.4-3.5-5.4-3.5s-1.3,5.6-3.5,6.5s-29.2,9.8-31.6,10.5
	c-2.4,0.7-5.7,1.5-6.6-0.2c-0.4-0.8-0.7-1.5-1.1-2.3c-8.5-20.7,0.8-68.2,1.2-85.1c0.4-17.5,1.5-23,7.6-33.4
	c6.1-10.3,14.7-14,18.5-16c4.4-2.3,13.3-4.9,20.1-0.3l0,0c0.8,0.5,1.6,1.2,2.3,2c6.9,7.2,9.5,7.5,9.4,33.8s-0.1,72,0,75.1
	C98.2,128.7,97.5,132.2,94.5,135.1z"/>
<path class="st2" d="M84.5,134.2c-0.9-10.8-3.4-21.3-4.1-32.2c-0.8-11.8,0.2-23.4,2.7-34.9c0.2-1-1.9-4.6-2.1-4
	c-8,20.9-4.4,46.8,0.8,68C82,132,84.8,137.3,84.5,134.2z"/>
<path class="st2" d="M67.4,66.4c3.8-14,4.4-30.2-6-41.5c-0.8-0.9,0.1,3,0.5,3.7c12.3,15,0.2,35.8-3.4,51.8
	c-3.6,15.9-3.2,33,2.3,48.4c0.4,1.2,2.3,3.5,1.8,0.7c-2-10.5-3.5-20.9-2.6-31.7C61,86.8,64.6,76.8,67.4,66.4z"/>
<g class="st7">
	<g>
		<g class="st8">
			<g>
				<polygon class="st9" points="111,70.7 103.5,70.6 103.3,69.6 110.8,69.7 				"/>
			</g>
			<g>
				<polygon class="st10" points="110.8,69.7 103.3,69.6 104.7,69.3 112.2,69.4 				"/>
			</g>
			<g>
				<polygon class="st11" points="112.2,69.4 112.3,70.4 111,70.7 110.8,69.7 				"/>
			</g>
		</g>
		<g class="st8">
			<g>
				<polygon class="st9" points="105.5,71.8 98,71.7 97.9,70.7 105.4,70.8 				"/>
			</g>
			<g>
				<polygon class="st10" points="105.4,70.8 97.9,70.7 100.6,70.1 108.1,70.3 				"/>
			</g>
			<g>
				<polygon class="st11" points="108.1,70.3 108.2,71.2 105.5,71.8 105.4,70.8 				"/>
			</g>
		</g>
		<g class="st8">
			<g>
				<polygon class="st10" points="99.9,71.9 92.4,71.8 95.1,71.2 102.6,71.4 				"/>
			</g>
			<g>
				<polygon class="st9" points="100.1,72.9 92.6,72.8 92.4,71.8 99.9,71.9 				"/>
			</g>
			<g>
				<polygon class="st11" points="99.9,71.9 102.6,71.4 102.8,72.3 100.1,72.9 				"/>
			</g>
		</g>
		<g class="st8">
			<g>
				<polygon class="st10" points="94.5,73 87,72.9 89.7,72.3 97.2,72.5 				"/>
			</g>
			<g>
				<polygon class="st9" points="94.6,74 87.2,73.9 87,72.9 94.5,73 				"/>
			</g>
			<g>
				<polygon class="st11" points="94.5,73 97.2,72.5 97.4,73.5 94.6,74 				"/>
			</g>
		</g>
		<g class="st8">
			<g>
				<polygon class="st10" points="89,74.1 81.5,74 84.3,73.5 91.8,73.6 				"/>
			</g>
			<g>
				<polygon class="st9" points="89.2,75.1 81.7,75 81.5,74 89,74.1 				"/>
			</g>
			<g>
				<polygon class="st11" points="89,74.1 91.8,73.6 91.9,74.6 89.2,75.1 				"/>
			</g>
		</g>
		<g class="st8">
			<g>
				<polygon class="st10" points="83.6,75.2 76.1,75.1 78.8,74.6 86.3,74.7 				"/>
			</g>
			<g>
				<polygon class="st9" points="83.8,76.2 76.3,76.1 76.1,75.1 83.6,75.2 				"/>
			</g>
			<g>
				<polygon class="st11" points="83.6,75.2 86.3,74.7 86.5,75.7 83.8,76.2 				"/>
			</g>
		</g>
		<g class="st8">
			<g>
				<polygon class="st10" points="78.2,76.4 70.7,76.2 73.4,75.7 80.9,75.8 				"/>
			</g>
			<g>
				<polygon class="st9" points="78.3,77.3 70.8,77.2 70.7,76.2 78.2,76.4 				"/>
			</g>
			<g>
				<polygon class="st11" points="78.2,76.4 80.9,75.8 81,76.8 78.3,77.3 				"/>
			</g>
		</g>
		<g class="st8">
			<g>
				<polygon class="st10" points="72.7,77.5 65.2,77.3 67.9,76.8 75.4,76.9 				"/>
			</g>
			<g>
				<polygon class="st9" points="72.9,78.4 65.4,78.3 65.2,77.3 72.7,77.5 				"/>
			</g>
			<g>
				<polygon class="st11" points="72.7,77.5 75.4,76.9 75.6,77.9 72.9,78.4 				"/>
			</g>
		</g>
		<g class="st8">
			<g>
				<polygon class="st10" points="67.3,78.6 59.8,78.4 62.5,77.9 70,78 				"/>
			</g>
			<g>
				<polygon class="st9" points="67.4,79.6 59.9,79.4 59.8,78.4 67.3,78.6 				"/>
			</g>
			<g>
				<polygon class="st11" points="67.3,78.6 70,78 70.2,79 67.4,79.6 				"/>
			</g>
		</g>
		<g class="st8">
			<g>
				<polygon class="st10" points="61.8,79.7 54.3,79.6 57.1,79 64.5,79.1 				"/>
			</g>
			<g>
				<polygon class="st9" points="62,80.7 54.5,80.5 54.3,79.6 61.8,79.7 				"/>
			</g>
			<g>
				<polygon class="st11" points="61.8,79.7 64.5,79.1 64.7,80.1 62,80.7 				"/>
			</g>
		</g>
		<g class="st8">
			<g>
				<polygon class="st10" points="56.4,80.8 48.9,80.7 51.6,80.1 59.1,80.2 				"/>
			</g>
			<g>
				<polygon class="st9" points="56.6,81.8 49.1,81.6 48.9,80.7 56.4,80.8 				"/>
			</g>
			<g>
				<polygon class="st11" points="56.4,80.8 59.1,80.2 59.3,81.2 56.6,81.8 				"/>
			</g>
		</g>
		<g class="st8">
			<g>
				<polygon class="st10" points="50.9,81.9 43.5,81.8 46.2,81.2 53.7,81.4 				"/>
			</g>
			<g>
				<polygon class="st9" points="51.1,82.9 43.6,82.8 43.5,81.8 50.9,81.9 				"/>
			</g>
			<g>
				<polygon class="st11" points="50.9,81.9 53.7,81.4 53.8,82.3 51.1,82.9 				"/>
			</g>
		</g>
		<g class="st8">
			<g>
				<polygon class="st10" points="45.5,83 38,82.9 40.7,82.3 48.2,82.5 				"/>
			</g>
			<g>
				<polygon class="st9" points="45.7,84 38.2,83.9 38,82.9 45.5,83 				"/>
			</g>
			<g>
				<polygon class="st11" points="45.5,83 48.2,82.5 48.4,83.4 45.7,84 				"/>
			</g>
		</g>
		<g class="st8">
			<g>
				<polygon class="st10" points="40.1,84.1 32.6,84 35.3,83.4 42.8,83.6 				"/>
			</g>
			<g>
				<polygon class="st9" points="40.2,85.1 32.7,85 32.6,84 40.1,84.1 				"/>
			</g>
			<g>
				<polygon class="st11" points="40.1,84.1 42.8,83.6 43,84.5 40.2,85.1 				"/>
			</g>
		</g>
		<g class="st8">
			<g>
				<polygon class="st10" points="34.6,85.2 27.1,85.1 29.8,84.5 37.3,84.7 				"/>
			</g>
			<g>
				<polygon class="st9" points="34.8,86.2 27.3,86.1 27.1,85.1 34.6,85.2 				"/>
			</g>
			<g>
				<polygon class="st11" points="34.6,85.2 37.3,84.7 37.5,85.7 34.8,86.2 				"/>
			</g>
		</g>
		<g class="st8">
			<g>
				<polygon class="st10" points="29.2,86.3 21.7,86.2 24.4,85.7 31.9,85.8 				"/>
			</g>
			<g>
				<polygon class="st9" points="29.3,87.3 21.8,87.2 21.7,86.2 29.2,86.3 				"/>
			</g>
			<g>
				<polygon class="st11" points="29.2,86.3 31.9,85.8 32.1,86.8 29.3,87.3 				"/>
			</g>
		</g>
		<g class="st8">
			<g>
				<polygon class="st10" points="23.7,87.5 16.2,87.3 19,86.8 26.5,86.9 				"/>
			</g>
			<g>
				<polygon class="st9" points="23.9,88.4 16.4,88.3 16.2,87.3 23.7,87.5 				"/>
			</g>
			<g>
				<polygon class="st11" points="23.7,87.5 26.5,86.9 26.6,87.9 23.9,88.4 				"/>
			</g>
		</g>
		<g class="st8">
			<g>
				<polygon class="st10" points="18.3,88.6 10.8,88.4 13.5,87.9 21,88 				"/>
			</g>
			<g>
				<polygon class="st9" points="18.5,89.5 11,89.4 10.8,88.4 18.3,88.6 				"/>
			</g>
			<g>
				<polygon class="st11" points="18.3,88.6 21,88 21.2,89 18.5,89.5 				"/>
			</g>
		</g>
		<g class="st8">
			<g>
				<polygon class="st9" points="14.4,90.4 6.9,90.2 6.7,89.3 14.2,89.4 				"/>
			</g>
			<g>
				<polygon class="st10" points="14.2,89.4 6.7,89.3 8.1,89 15.6,89.1 				"/>
			</g>
			<g>
				<polygon class="st11" points="15.6,89.1 15.7,90.1 14.4,90.4 14.2,89.4 				"/>
			</g>
		</g>
	</g>
</g>
<g class="st7">
	<g>
		<g class="st8">
			<g>
				<polygon class="st9" points="115.3,77.7 107.8,77.6 107.6,76.6 115.1,76.7 				"/>
			</g>
			<g>
				<polygon class="st10" points="115.1,76.7 107.6,76.6 108.9,76.3 116.4,76.4 				"/>
			</g>
			<g>
				<polygon class="st11" points="116.4,76.4 116.6,77.4 115.3,77.7 115.1,76.7 				"/>
			</g>
		</g>
		<g class="st8">
			<g>
				<polygon class="st9" points="109.9,78.9 102.5,78.7 102.3,77.7 109.8,77.9 				"/>
			</g>
			<g>
				<polygon class="st10" points="109.8,77.9 102.3,77.7 104.9,77.2 112.4,77.3 				"/>
			</g>
			<g>
				<polygon class="st11" points="112.4,77.3 112.6,78.3 109.9,78.9 109.8,77.9 				"/>
			</g>
		</g>
		<g class="st8">
			<g>
				<polygon class="st10" points="104.5,79 97,78.9 99.6,78.3 107.1,78.4 				"/>
			</g>
			<g>
				<polygon class="st9" points="104.6,80 97.1,79.9 97,78.9 104.5,79 				"/>
			</g>
			<g>
				<polygon class="st11" points="104.5,79 107.1,78.4 107.3,79.4 104.6,80 				"/>
			</g>
		</g>
		<g class="st8">
			<g>
				<polygon class="st10" points="99.1,80.2 91.7,80 94.3,79.5 101.8,79.6 				"/>
			</g>
			<g>
				<polygon class="st9" points="99.3,81.1 91.8,81 91.7,80 99.1,80.2 				"/>
			</g>
			<g>
				<polygon class="st11" points="99.1,80.2 101.8,79.6 102,80.6 99.3,81.1 				"/>
			</g>
		</g>
		<g class="st8">
			<g>
				<polygon class="st10" points="93.8,81.3 86.3,81.2 89,80.6 96.5,80.7 				"/>
			</g>
			<g>
				<polygon class="st9" points="94,82.3 86.5,82.1 86.3,81.2 93.8,81.3 				"/>
			</g>
			<g>
				<polygon class="st11" points="93.8,81.3 96.5,80.7 96.7,81.7 94,82.3 				"/>
			</g>
		</g>
		<g class="st8">
			<g>
				<polygon class="st10" points="88.5,82.4 81,82.3 83.7,81.7 91.2,81.8 				"/>
			</g>
			<g>
				<polygon class="st9" points="88.7,83.4 81.2,83.3 81,82.3 88.5,82.4 				"/>
			</g>
			<g>
				<polygon class="st11" points="88.5,82.4 91.2,81.8 91.3,82.8 88.7,83.4 				"/>
			</g>
		</g>
		<g class="st8">
			<g>
				<polygon class="st10" points="83.2,83.6 75.7,83.4 78.4,82.9 85.9,83 				"/>
			</g>
			<g>
				<polygon class="st9" points="83.4,84.5 75.9,84.4 75.7,83.4 83.2,83.6 				"/>
			</g>
			<g>
				<polygon class="st11" points="83.2,83.6 85.9,83 86,84 83.4,84.5 				"/>
			</g>
		</g>
		<g class="st8">
			<g>
				<polygon class="st10" points="77.9,84.7 70.4,84.6 73.1,84 80.6,84.1 				"/>
			</g>
			<g>
				<polygon class="st9" points="78.1,85.7 70.6,85.5 70.4,84.6 77.9,84.7 				"/>
			</g>
			<g>
				<polygon class="st11" points="77.9,84.7 80.6,84.1 80.7,85.1 78.1,85.7 				"/>
			</g>
		</g>
		<g class="st8">
			<g>
				<polygon class="st10" points="72.6,85.8 65.1,85.7 67.7,85.1 75.2,85.3 				"/>
			</g>
			<g>
				<polygon class="st9" points="72.8,86.8 65.3,86.7 65.1,85.7 72.6,85.8 				"/>
			</g>
			<g>
				<polygon class="st11" points="72.6,85.8 75.2,85.3 75.4,86.2 72.8,86.8 				"/>
			</g>
		</g>
		<g class="st8">
			<g>
				<polygon class="st10" points="67.3,87 59.8,86.8 62.4,86.3 69.9,86.4 				"/>
			</g>
			<g>
				<polygon class="st9" points="67.4,87.9 60,87.8 59.8,86.8 67.3,87 				"/>
			</g>
			<g>
				<polygon class="st11" points="67.3,87 69.9,86.4 70.1,87.4 67.4,87.9 				"/>
			</g>
		</g>
		<g class="st8">
			<g>
				<polygon class="st10" points="62,88.1 54.5,88 57.1,87.4 64.6,87.5 				"/>
			</g>
			<g>
				<polygon class="st9" points="62.1,89.1 54.6,88.9 54.5,88 62,88.1 				"/>
			</g>
			<g>
				<polygon class="st11" points="62,88.1 64.6,87.5 64.8,88.5 62.1,89.1 				"/>
			</g>
		</g>
		<g class="st8">
			<g>
				<polygon class="st10" points="56.6,89.2 49.2,89.1 51.8,88.5 59.3,88.7 				"/>
			</g>
			<g>
				<polygon class="st9" points="56.8,90.2 49.3,90.1 49.2,89.1 56.6,89.2 				"/>
			</g>
			<g>
				<polygon class="st11" points="56.6,89.2 59.3,88.7 59.5,89.6 56.8,90.2 				"/>
			</g>
		</g>
		<g class="st8">
			<g>
				<polygon class="st10" points="51.3,90.4 43.8,90.2 46.5,89.7 54,89.8 				"/>
			</g>
			<g>
				<polygon class="st9" points="51.5,91.3 44,91.2 43.8,90.2 51.3,90.4 				"/>
			</g>
			<g>
				<polygon class="st11" points="51.3,90.4 54,89.8 54.2,90.8 51.5,91.3 				"/>
			</g>
		</g>
		<g class="st8">
			<g>
				<polygon class="st10" points="46,91.5 38.5,91.4 41.2,90.8 48.7,90.9 				"/>
			</g>
			<g>
				<polygon class="st9" points="46.2,92.5 38.7,92.4 38.5,91.4 46,91.5 				"/>
			</g>
			<g>
				<polygon class="st11" points="46,91.5 48.7,90.9 48.9,91.9 46.2,92.5 				"/>
			</g>
		</g>
		<g class="st8">
			<g>
				<polygon class="st10" points="40.7,92.6 33.2,92.5 35.9,91.9 43.4,92.1 				"/>
			</g>
			<g>
				<polygon class="st9" points="40.9,93.6 33.4,93.5 33.2,92.5 40.7,92.6 				"/>
			</g>
			<g>
				<polygon class="st11" points="40.7,92.6 43.4,92.1 43.5,93.1 40.9,93.6 				"/>
			</g>
		</g>
		<g class="st8">
			<g>
				<polygon class="st10" points="35.4,93.8 27.9,93.6 30.6,93.1 38,93.2 				"/>
			</g>
			<g>
				<polygon class="st9" points="35.6,94.7 28.1,94.6 27.9,93.6 35.4,93.8 				"/>
			</g>
			<g>
				<polygon class="st11" points="35.4,93.8 38,93.2 38.2,94.2 35.6,94.7 				"/>
			</g>
		</g>
		<g class="st8">
			<g>
				<polygon class="st10" points="30.1,94.9 22.6,94.8 25.2,94.2 32.7,94.3 				"/>
			</g>
			<g>
				<polygon class="st9" points="30.3,95.9 22.8,95.8 22.6,94.8 30.1,94.9 				"/>
			</g>
			<g>
				<polygon class="st11" points="30.1,94.9 32.7,94.3 32.9,95.3 30.3,95.9 				"/>
			</g>
		</g>
		<g class="st8">
			<g>
				<polygon class="st10" points="24.8,96 17.3,95.9 19.9,95.3 27.4,95.5 				"/>
			</g>
			<g>
				<polygon class="st9" points="24.9,97 17.5,96.9 17.3,95.9 24.8,96 				"/>
			</g>
			<g>
				<polygon class="st11" points="24.8,96 27.4,95.5 27.6,96.5 24.9,97 				"/>
			</g>
		</g>
		<g class="st8">
			<g>
				<polygon class="st10" points="19.5,97.2 12,97 14.6,96.5 22.1,96.6 				"/>
			</g>
			<g>
				<polygon class="st9" points="19.6,98.2 12.1,98 12,97 19.5,97.2 				"/>
			</g>
			<g>
				<polygon class="st11" points="19.5,97.2 22.1,96.6 22.3,97.6 19.6,98.2 				"/>
			</g>
		</g>
		<g class="st8">
			<g>
				<polygon class="st9" points="15.6,99 8.1,98.9 7.9,97.9 15.4,98 				"/>
			</g>
			<g>
				<polygon class="st10" points="15.4,98 7.9,97.9 9.3,97.6 16.8,97.7 				"/>
			</g>
			<g>
				<polygon class="st11" points="16.8,97.7 17,98.7 15.6,99 15.4,98 				"/>
			</g>
		</g>
	</g>
</g>
<path class="st12" d="M87.4,138.4c0,0-2.5,0.9-4.6,0.8c-2.1-0.1-2.1-1-2.1-1l1.1-3.3L87.4,138.4z"/>
</svg>
