<?xml version="1.0" encoding="utf-8"?>
<!-- Generator: Adobe Illustrator 23.0.1, SVG Export Plug-In . SVG Version: 6.00 Build 0)  -->
<svg version="1.1" id="Layer_1" xmlns="http://www.w3.org/2000/svg" xmlns:xlink="http://www.w3.org/1999/xlink" x="0px" y="0px"
	 viewBox="0 0 375 409" style="enable-background:new 0 0 375 409;" xml:space="preserve">
<style type="text/css">
	.st0{opacity:0.1;}
	.st1{fill:#2CAEA4;}
</style>
<g class="st0">
	<path class="st1" d="M195.8,12.7C195,15,188.1,36,204,59.9c20.9,31.3,87.7,76.2,87.7,76.2s-58.3-30.5-85.6-64.2
		C180.1,39.9,194.3,15.2,195.8,12.7L195.8,12.7c-42.3,53.9,9.4,87.2,48.2,120.9s33.8,66.1,33.8,66.1c-8.5-40.5-69.3-70.2-95.5-114.2
		c-24.9-41.9,9.9-70.2,13.3-72.8c-0.1,0-0.1,0-0.2,0c-4.1,1.8-34.8,16.6-37.5,55c-2.6,37.5,47.3,74.4,94.1,126.4
		c41.3,45.8,8.4,96.4,8.4,96.4c18.7-45.4-0.9-74.9-45.4-118.4c-45.4-44.5-78.2-77.7-67.4-113.7C158,23.5,189.7,14.1,195,12.7
		c-2.5-0.1-5.1-0.2-7.7-0.2c-17.4,0-34.2,2.7-50,7.7c-3.2,2.1-31.6,22-37.9,62.5c-9.6,62,71.4,137.5,66.5,197.5
		c-1.7,21-13.4,42.5-24,57.8c14.4,4.1,29.6,6.3,45.4,6.3c3.1,0,6.2-0.1,9.3-0.3c-16,30.7-41.6,59.4-41.6,59.5
		c0,0,89.2-76.5,85.6-133.4c-3.5-56.9-110.4-86.6-120.3-179.9c-6.6-61.8,56.9-76,56.9-76S134.6,29.4,133.7,71
		c-1.9,80.5,108.7,126.6,121.2,183.4c6.4,29.2-9.7,59.9-30.8,85.8c74-16.7,129.3-82.8,129.3-161.8C353.4,89.6,283.6,17.1,195.8,12.7
		z"/>
	<path class="st1" d="M146.8,262.8c-16-48-71.9-129.9-54.7-186.1c12.1-39.6,34.4-52.2,42.5-55.6c-65.6,22.1-113,84.1-113,157.3
		c0,74.2,48.7,137,116,158.2C146.4,317,155.3,288.2,146.8,262.8z"/>
</g>
</svg>
