<?xml version="1.0" encoding="utf-8"?>
<!-- Generator: Adobe Illustrator 23.0.1, SVG Export Plug-In . SVG Version: 6.00 Build 0)  -->
<svg version="1.1" id="Layer_1" xmlns="http://www.w3.org/2000/svg" xmlns:xlink="http://www.w3.org/1999/xlink" x="0px" y="0px"
	 viewBox="0 0 117.8 80.3" style="enable-background:new 0 0 117.8 80.3;" xml:space="preserve">
<style type="text/css">
	.st0{fill:#64519C;}
	.st1{fill:#FFFFFF;}
</style>
<g>
	<path class="st0" d="M109.4,27.1c-0.1-2.4-2.6-7.6-6.6-11.9s-11.1-9.4-22-9.4c-9.4,0-17.6,5.7-25.4,11.1c-4.1,2.9-8.1,5.6-11.9,7.3
		c0-0.3,0-0.6,0-0.9c0-1.1,0-3.5-1.4-5.8c-1.2-1.9-3.7-4.3-8.9-4.3c-3.9,0-7.2,1.2-9.7,2.4l0,0c0-2.3,1.4-4.2,2.5-5.6
		c1-1.3,2.5-3.4,1.3-5.9c-0.8-1.5-2.3-2.4-4.2-2.4c-2.9,0-5.7,1.5-7.7,4.3c-3.4,4.7-4.6,12.1-3.1,18.8l-0.8,1.1
		c-1.8,2.4-3.3,5-4.7,7.8C4,39.5,2.6,45.4,2.6,51.3c0,5.1,1.4,9.5,4.2,13.1c3.1,4,7.5,6,13.2,6c5,0,9.6-1.7,13.7-4.9
		c2.3,2.3,5.9,2.7,8.9,0.6c0.3,0.2,0.5,0.4,0.8,0.5c1,0.6,2.1,0.9,3.4,0.9c2.7,0,5.3-1.2,7.7-3.5c0.2-0.2,0.4-0.4,0.5-0.5
		c0.4,0.7,0.9,1.4,1.5,1.9c1.4,1.3,3.2,1.9,5.3,1.9s4.2-0.6,6.2-1.9c1.4,1.3,3.2,2.1,5.3,2.1c1.1,0,2.3-0.2,3.3-0.6
		c-0.1,0.2-0.2,0.3-0.3,0.5c-0.8,1.3-1.2,2.7-1.2,4.1c0,2.1,0.8,4,2.3,5.3c1.3,1.1,2.9,1.7,4.7,1.7c4.5,0,8.2-3.7,11.7-11.6
		c0.7-0.4,1.6-0.9,2.6-1.5c1.8-1.1,4.5-3,7.4-5.5c5.1-4.4,11.3-11.3,11.3-18.8C115.3,37.4,113.5,31.8,109.4,27.1z"/>
	<g>
		<path class="st1" d="M80.8,9.8C66.6,9.8,53.9,26,41.3,29.2c-0.9,2.6-2.3,5.2-4.1,7.7c-0.1,0.1-0.2,0.2-0.3,0.4
			c18.6-1.4,26.2-22,45.2-22c14.8,0,23.3,12.8,23.3,12C105.4,25.7,98.9,9.8,80.8,9.8z"/>
		<path class="st1" d="M85.1,21.2C71,21.2,57.4,31,57.4,37.3c0,2.9,2,3.8,2.9,3.8c1,0,4.9-0.1,4.9-4.4c0-2,2.2-12.1,20.2-12.1
			c13.9,0,21.8,9,21.8,16.3c0,11.4-14.3,21.3-15.8,21.3c0.9-2.3,1.6-4.7,2.2-7.2s1-4.1,1-4.8c-0.8-0.1-1.3-0.2-1.4-0.2
			c-0.6,0-1.1,0.2-1.5,0.6c-0.4,0.4-0.7,0.8-0.8,1.2c-0.1,0.4-0.2,0.9-0.3,1.5c-0.1,0.6-0.2,0.9-0.2,1c-2,3.6-3.8,5.4-5.4,5.4l0,0
			c-0.8,0-1.2-0.5-1.2-1.6c0-1,0.3-2.4,1-4.2c0.6-1.8,1.2-3.1,1.8-3.8c-0.1-0.4-0.5-0.7-1-1c-0.6-0.3-1-0.5-1.3-0.5
			c-0.7,0-1.5,1.2-2.5,3.6c-0.6,1.6-1.1,3-1.3,4.2c-0.6,1.1-1.3,2.2-2.1,3.1c-1.1,1.4-2.2,2-3.2,2c-1.2,0-1.8-1-1.8-3
			c0-0.1,0-0.1,0-0.1c0-0.9,0.2-2.3,0.5-4c2-1.6,4-3.9,5.8-6.6c1.9-2.8,3.3-5.4,4.3-7.9s1.5-4.4,1.5-5.7c0-0.8-0.2-1.6-0.6-2.4
			c-0.3-0.8-0.8-1.2-1.2-1.2c-1.1,0-2.7,1.7-4.9,5.2c-2.2,3.5-4.2,7.5-6,12.1c-1.1,2.8-1.9,5.3-2.3,7.4c-0.7,1.2-1.6,2.4-2.9,3.6
			c-1.5,1.4-2.9,2.2-4.2,2.2c-0.7,0-1.1-0.3-1.1-1c0-0.5,0.4-1.5,1.1-3.2c0.8-1.6,1.1-2.9,1.1-3.9c0-0.8-0.2-1.6-0.7-2.3
			s-1-1.2-1.6-1.6c-0.6-0.4-1.1-0.7-1.6-1.1c-0.8-0.3-1-0.6-1-0.9c0-0.1,0.1-0.3,0.3-0.8s0.3-0.7,0.3-0.9s-0.1-0.5-0.3-0.9
			S59.4,44,59.1,44c-0.4,0-0.8,0.3-1.2,1s-0.6,1.4-0.6,2.2c0,0.5,0.1,0.9,0.4,1.2c-0.9,2.5-1.9,4.9-3,7c-1.1,2-1.6,2.9-2.9,4.2
			c-1.4,1.3-2.6,2-3.5,2l0,0c-0.7,0-1.1-0.5-1.1-1.5c0-0.8,0.2-1.9,0.6-3.2c0.4-1.3,0.8-2.5,1.2-3.6c0.4-1,0.6-1.6,0.6-1.6
			c0-0.7-0.8-1.2-2.4-1.5c-0.6,1.4-1.3,2.9-2.1,4.4s-1.7,3-2.8,4.4s-2,2.2-2.7,2.2c-0.9,0-1.3-0.9-1.3-2.6c0-1.2,0.3-2.7,1-4.4
			c0.6-1.7,1.3-3,1.9-3.9c-0.7-0.8-1.4-1.1-2-1.1c-0.7,0-1.5,1.2-2.5,3.7c-0.2,0.6-0.4,1.2-0.6,1.8c-1.4,1.9-3,3.6-4.9,5.1
			c-3.2,2.6-6.4,3.9-9.6,3.9c-3,0-5.2-1.1-6.7-3.4c-1.5-2.2-2.2-5-2.2-8.3c0-4.3,1.1-9,3.2-14.1c0.6-1.5,1.3-3,2.1-4.4
			c-0.3-0.3-0.5-0.7-0.8-1c-0.9-1.2-1.7-2.6-2.3-4.1c-1.6,2.1-3,4.5-4.3,7.1C8,40.7,6.7,46,6.7,51.3c0,4.2,1.1,7.7,3.4,10.7
			s5.6,4.4,9.9,4.4c4.1,0,7.9-1.4,11.4-4.2c1.4-1.1,2.6-2.3,3.8-3.7c0,0.1,0,0.3,0,0.4c0,1.2,0.3,2.3,0.9,3.2
			c0.6,0.9,1.4,1.4,2.4,1.4c0.7,0,1.3-0.3,2.1-0.8c0.7-0.5,1.3-1.1,1.8-1.7c0.5-0.6,1-1.4,1.6-2.4c0,0.6,0,1,0,1.4s0.1,0.8,0.2,1.3
			c0.1,0.5,0.3,0.9,0.5,1.2s0.5,0.5,0.9,0.8c0.4,0.2,0.9,0.3,1.4,0.3c1.6,0,3.3-0.8,5-2.4c1.7-1.6,2.9-3.2,4-5.5l0,0
			c1.1-2,2-4.1,2.8-6.2c1.4,0.8,2.1,1.7,2.1,2.8c0,0.7-0.4,1.9-1.2,3.8c-0.8,1.8-1.2,3.2-1.2,4c0,1,0.3,1.8,1,2.3
			c0.7,0.6,1.5,0.9,2.5,0.9c1.8,0,3.7-0.8,5.5-2.4c0.9-0.8,1.7-1.6,2.3-2.5c0,0.2,0,0.3,0,0.5c0,3.1,1.2,4.6,3.6,4.6
			c1.6,0,3.2-0.7,4.7-2.2c0.7-0.7,1.4-1.5,2-2.5c0.1,0.9,0.5,1.6,1.1,2.1c0.8,0.6,1.6,0.9,2.6,0.9c1.9,0,4-1.6,6.2-4.8
			c-0.9,3.3-1.6,5.6-2.1,6.8L85.6,65c-0.5,0.2-1.3,0.6-2.2,1.2c-1,0.6-1.7,1.1-2.1,1.6c-0.5,0.5-0.9,1-1.3,1.7s-0.6,1.4-0.6,2.1
			c0,0.9,0.3,1.7,0.9,2.2s1.3,0.7,2.1,0.7c2.8,0,5.7-3.5,8.6-10.5c0.8,0,20.3-11.3,20.3-22.8C111.2,36,105.7,21.2,85.1,21.2z
			 M77.6,43.7c1.3-2.7,2.5-5,3.5-6.7c1.1-1.7,1.8-2.6,2.2-2.6c0,1.6-0.9,4.2-2.7,7.8c-1.8,3.6-3.8,6.7-6.1,9.3
			C75.3,49.1,76.3,46.5,77.6,43.7z M84.3,70.9c-1,1.2-1.8,1.9-2.4,1.9s-0.8-0.4-0.8-1.2c0-1.8,2-3.7,6.1-5.8
			C86.2,67.9,85.2,69.6,84.3,70.9z"/>
		<path class="st1" d="M33.3,17.3c-4.6,0-8.3,2.1-9.9,3.2c0.1,0.2,0.1,0.5,0.2,0.7c0.3,1.2,0.8,2.1,1.5,2.8l0.1,0.1
			c1.4-1.4,4.5-4.1,8.7-4.1c6.5,0-3.3,16.3-8.2,16.3c-2.8,0-1.9,4.3,2.1,4.3c3.6,0,11.8-9.2,11.8-17.4
			C39.5,21.5,39.4,17.3,33.3,17.3z"/>
		<path class="st1" d="M23.1,33.9c1.8-1.3,3.9-3.4,5.4-5.2c-2.5-0.5-4.6-1.5-6-3c-1-1-1.7-2.4-2.2-4s-0.7-3.6-0.7-6
			c0-6.3,6-9.9,3.6-9.9c-5.5,0-9.2,10.5-6.5,19.3c0.6,1.8,1.4,3.5,2.5,5C20.2,31.5,21.5,32.8,23.1,33.9z"/>
	</g>
</g>
</svg>
